<svg xmlns="http://www.w3.org/2000/svg" xmlns:xlink="http://www.w3.org/1999/xlink" width="764" zoomAndPan="magnify" viewBox="0 0 573 639.750003" height="853" preserveAspectRatio="xMidYMid meet" version="1.0"><defs><g/><clipPath id="436306470e"><path d="M 0.113281 0 L 572.886719 0 L 572.886719 639.5 L 0.113281 639.5 Z M 0.113281 0 " clip-rule="nonzero"/></clipPath><clipPath id="5afb5eb3e3"><path d="M 124.320312 126.183594 L 448.195312 126.183594 L 448.195312 450.058594 L 124.320312 450.058594 Z M 124.320312 126.183594 " clip-rule="nonzero"/></clipPath><clipPath id="cafaadd866"><path d="M 393 379 L 469 379 L 469 463 L 393 463 Z M 393 379 " clip-rule="nonzero"/></clipPath><clipPath id="131fbcf9a7"><path d="M 208.894531 559.128906 L 388.078125 379.949219 L 468.125 459.996094 L 288.945312 639.175781 Z M 208.894531 559.128906 " clip-rule="nonzero"/></clipPath><clipPath id="86b438ba0d"><path d="M 208.707031 558.941406 L 388.417969 379.226562 L 468.464844 459.277344 L 288.753906 638.988281 Z M 208.707031 558.941406 " clip-rule="nonzero"/></clipPath><clipPath id="889250dd29"><path d="M -59.019531 291.214844 L 288.210938 -56.015625 L 635.972656 291.746094 L 288.742188 638.976562 Z M -59.019531 291.214844 " clip-rule="nonzero"/></clipPath><clipPath id="dc0d9b87d9"><path d="M 414 379 L 469 379 L 469 497 L 414 497 Z M 414 379 " clip-rule="nonzero"/></clipPath><clipPath id="ddc5d5aeda"><path d="M 208.894531 559.128906 L 388.078125 379.949219 L 468.125 459.996094 L 288.945312 639.175781 Z M 208.894531 559.128906 " clip-rule="nonzero"/></clipPath><clipPath id="17c5895a84"><path d="M 208.707031 558.941406 L 388.417969 379.226562 L 468.464844 459.277344 L 288.753906 638.988281 Z M 208.707031 558.941406 " clip-rule="nonzero"/></clipPath><clipPath id="169738b68c"><path d="M -59.019531 291.214844 L 288.210938 -56.015625 L 635.972656 291.746094 L 288.742188 638.976562 Z M -59.019531 291.214844 " clip-rule="nonzero"/></clipPath><clipPath id="0d295c722a"><path d="M 419 427 L 463 427 L 463 472 L 419 472 Z M 419 427 " clip-rule="nonzero"/></clipPath><clipPath id="b3741c9f6e"><path d="M 208.894531 559.128906 L 388.078125 379.949219 L 468.125 459.996094 L 288.945312 639.175781 Z M 208.894531 559.128906 " clip-rule="nonzero"/></clipPath><clipPath id="eb403957b4"><path d="M 208.707031 558.941406 L 388.417969 379.226562 L 468.464844 459.277344 L 288.753906 638.988281 Z M 208.707031 558.941406 " clip-rule="nonzero"/></clipPath><clipPath id="2f59ef22e2"><path d="M -59.019531 291.214844 L 288.210938 -56.015625 L 635.972656 291.746094 L 288.742188 638.976562 Z M -59.019531 291.214844 " clip-rule="nonzero"/></clipPath><clipPath id="333aaf6d4d"><path d="M 401 442 L 441 442 L 441 491 L 401 491 Z M 401 442 " clip-rule="nonzero"/></clipPath><clipPath id="564cfe2960"><path d="M 208.894531 559.128906 L 388.078125 379.949219 L 468.125 459.996094 L 288.945312 639.175781 Z M 208.894531 559.128906 " clip-rule="nonzero"/></clipPath><clipPath id="3fef7dd321"><path d="M 208.707031 558.941406 L 388.417969 379.226562 L 468.464844 459.277344 L 288.753906 638.988281 Z M 208.707031 558.941406 " clip-rule="nonzero"/></clipPath><clipPath id="28aceaf34b"><path d="M -59.019531 291.214844 L 288.210938 -56.015625 L 635.972656 291.746094 L 288.742188 638.976562 Z M -59.019531 291.214844 " clip-rule="nonzero"/></clipPath><clipPath id="0a989f2f68"><path d="M 221 457 L 397 457 L 397 494 L 221 494 Z M 221 457 " clip-rule="nonzero"/></clipPath><clipPath id="18b0382901"><path d="M 208.894531 559.128906 L 388.078125 379.949219 L 468.125 459.996094 L 288.945312 639.175781 Z M 208.894531 559.128906 " clip-rule="nonzero"/></clipPath><clipPath id="671ea1cfc5"><path d="M 208.707031 558.941406 L 388.417969 379.226562 L 468.464844 459.277344 L 288.753906 638.988281 Z M 208.707031 558.941406 " clip-rule="nonzero"/></clipPath><clipPath id="1cd14af29a"><path d="M -59.019531 291.214844 L 288.210938 -56.015625 L 635.972656 291.746094 L 288.742188 638.976562 Z M -59.019531 291.214844 " clip-rule="nonzero"/></clipPath><clipPath id="c266ca8a1a"><path d="M 208 491 L 418 491 L 418 534 L 208 534 Z M 208 491 " clip-rule="nonzero"/></clipPath><clipPath id="af0f96fd50"><path d="M 208.894531 559.128906 L 388.078125 379.949219 L 468.125 459.996094 L 288.945312 639.175781 Z M 208.894531 559.128906 " clip-rule="nonzero"/></clipPath><clipPath id="42ddeed142"><path d="M 208.707031 558.941406 L 388.417969 379.226562 L 468.464844 459.277344 L 288.753906 638.988281 Z M 208.707031 558.941406 " clip-rule="nonzero"/></clipPath><clipPath id="1c4cfe77a3"><path d="M -59.019531 291.214844 L 288.210938 -56.015625 L 635.972656 291.746094 L 288.742188 638.976562 Z M -59.019531 291.214844 " clip-rule="nonzero"/></clipPath><clipPath id="79f650801d"><path d="M 373 460 L 406 460 L 406 512 L 373 512 Z M 373 460 " clip-rule="nonzero"/></clipPath><clipPath id="720a7ef734"><path d="M 208.894531 559.128906 L 388.078125 379.949219 L 468.125 459.996094 L 288.945312 639.175781 Z M 208.894531 559.128906 " clip-rule="nonzero"/></clipPath><clipPath id="7cbee75f3d"><path d="M 208.707031 558.941406 L 388.417969 379.226562 L 468.464844 459.277344 L 288.753906 638.988281 Z M 208.707031 558.941406 " clip-rule="nonzero"/></clipPath><clipPath id="c84e580e45"><path d="M -59.019531 291.214844 L 288.210938 -56.015625 L 635.972656 291.746094 L 288.742188 638.976562 Z M -59.019531 291.214844 " clip-rule="nonzero"/></clipPath><clipPath id="643bdba3e1"><path d="M 352 470 L 379 470 L 379 524 L 352 524 Z M 352 470 " clip-rule="nonzero"/></clipPath><clipPath id="e361fb6078"><path d="M 208.894531 559.128906 L 388.078125 379.949219 L 468.125 459.996094 L 288.945312 639.175781 Z M 208.894531 559.128906 " clip-rule="nonzero"/></clipPath><clipPath id="8c1d568e8b"><path d="M 208.707031 558.941406 L 388.417969 379.226562 L 468.464844 459.277344 L 288.753906 638.988281 Z M 208.707031 558.941406 " clip-rule="nonzero"/></clipPath><clipPath id="3c9cad0207"><path d="M -59.019531 291.214844 L 288.210938 -56.015625 L 635.972656 291.746094 L 288.742188 638.976562 Z M -59.019531 291.214844 " clip-rule="nonzero"/></clipPath><clipPath id="33809ef954"><path d="M 329 477 L 351 477 L 351 532 L 329 532 Z M 329 477 " clip-rule="nonzero"/></clipPath><clipPath id="d3651ea500"><path d="M 208.894531 559.128906 L 388.078125 379.949219 L 468.125 459.996094 L 288.945312 639.175781 Z M 208.894531 559.128906 " clip-rule="nonzero"/></clipPath><clipPath id="41962d20be"><path d="M 208.707031 558.941406 L 388.417969 379.226562 L 468.464844 459.277344 L 288.753906 638.988281 Z M 208.707031 558.941406 " clip-rule="nonzero"/></clipPath><clipPath id="3ccac7aafb"><path d="M -59.019531 291.214844 L 288.210938 -56.015625 L 635.972656 291.746094 L 288.742188 638.976562 Z M -59.019531 291.214844 " clip-rule="nonzero"/></clipPath><clipPath id="651b12fd36"><path d="M 306 482 L 321 482 L 321 537 L 306 537 Z M 306 482 " clip-rule="nonzero"/></clipPath><clipPath id="078b79ab7c"><path d="M 208.894531 559.128906 L 388.078125 379.949219 L 468.125 459.996094 L 288.945312 639.175781 Z M 208.894531 559.128906 " clip-rule="nonzero"/></clipPath><clipPath id="eebc8547aa"><path d="M 208.707031 558.941406 L 388.417969 379.226562 L 468.464844 459.277344 L 288.753906 638.988281 Z M 208.707031 558.941406 " clip-rule="nonzero"/></clipPath><clipPath id="4311c0b3d5"><path d="M -59.019531 291.214844 L 288.210938 -56.015625 L 635.972656 291.746094 L 288.742188 638.976562 Z M -59.019531 291.214844 " clip-rule="nonzero"/></clipPath><clipPath id="b355efa699"><path d="M 281 483 L 291 483 L 291 538 L 281 538 Z M 281 483 " clip-rule="nonzero"/></clipPath><clipPath id="f80468f75d"><path d="M 208.894531 559.128906 L 388.078125 379.949219 L 468.125 459.996094 L 288.945312 639.175781 Z M 208.894531 559.128906 " clip-rule="nonzero"/></clipPath><clipPath id="a1f7e13d21"><path d="M 208.707031 558.941406 L 388.417969 379.226562 L 468.464844 459.277344 L 288.753906 638.988281 Z M 208.707031 558.941406 " clip-rule="nonzero"/></clipPath><clipPath id="305f0bac89"><path d="M -59.019531 291.214844 L 288.210938 -56.015625 L 635.972656 291.746094 L 288.742188 638.976562 Z M -59.019531 291.214844 " clip-rule="nonzero"/></clipPath><clipPath id="55ff27ddbd"><path d="M 251 481 L 268 481 L 268 536 L 251 536 Z M 251 481 " clip-rule="nonzero"/></clipPath><clipPath id="cd940349c9"><path d="M 208.894531 559.128906 L 388.078125 379.949219 L 468.125 459.996094 L 288.945312 639.175781 Z M 208.894531 559.128906 " clip-rule="nonzero"/></clipPath><clipPath id="8ed4e0e581"><path d="M 208.707031 558.941406 L 388.417969 379.226562 L 468.464844 459.277344 L 288.753906 638.988281 Z M 208.707031 558.941406 " clip-rule="nonzero"/></clipPath><clipPath id="e5fbe198ab"><path d="M -59.019531 291.214844 L 288.210938 -56.015625 L 635.972656 291.746094 L 288.742188 638.976562 Z M -59.019531 291.214844 " clip-rule="nonzero"/></clipPath><clipPath id="b10e551bea"><path d="M 105 379 L 181 379 L 181 463 L 105 463 Z M 105 379 " clip-rule="nonzero"/></clipPath><clipPath id="ffca75aac2"><path d="M 185.773438 379.789062 L 364.957031 558.972656 L 284.90625 639.019531 L 105.726562 459.839844 Z M 185.773438 379.789062 " clip-rule="nonzero"/></clipPath><clipPath id="40c3df20c0"><path d="M 633.015625 291.226562 L 285.785156 -56.003906 L -61.976562 291.757812 L 285.253906 638.988281 Z M 633.015625 291.226562 " clip-rule="nonzero"/></clipPath><clipPath id="a8571e0f6f"><path d="M 633.015625 291.226562 L 285.785156 -56.003906 L -61.976562 291.757812 L 285.253906 638.988281 Z M 633.015625 291.226562 " clip-rule="nonzero"/></clipPath><clipPath id="d16e799258"><path d="M 105 379 L 160 379 L 160 497 L 105 497 Z M 105 379 " clip-rule="nonzero"/></clipPath><clipPath id="133a8f43fb"><path d="M 185.773438 379.789062 L 364.957031 558.972656 L 284.90625 639.019531 L 105.726562 459.839844 Z M 185.773438 379.789062 " clip-rule="nonzero"/></clipPath><clipPath id="4dc4d60978"><path d="M 633.015625 291.226562 L 285.785156 -56.003906 L -61.976562 291.757812 L 285.253906 638.988281 Z M 633.015625 291.226562 " clip-rule="nonzero"/></clipPath><clipPath id="19947590fe"><path d="M 633.015625 291.226562 L 285.785156 -56.003906 L -61.976562 291.757812 L 285.253906 638.988281 Z M 633.015625 291.226562 " clip-rule="nonzero"/></clipPath><clipPath id="1e20da762b"><path d="M 105 379 L 113 379 L 113 401 L 105 401 Z M 105 379 " clip-rule="nonzero"/></clipPath><clipPath id="68003dfbe0"><path d="M 185.773438 379.789062 L 364.957031 558.972656 L 284.90625 639.019531 L 105.726562 459.839844 Z M 185.773438 379.789062 " clip-rule="nonzero"/></clipPath><clipPath id="1c8ce929ee"><path d="M 633.015625 291.226562 L 285.785156 -56.003906 L -61.976562 291.757812 L 285.253906 638.988281 Z M 633.015625 291.226562 " clip-rule="nonzero"/></clipPath><clipPath id="60d5a43d45"><path d="M 633.015625 291.226562 L 285.785156 -56.003906 L -61.976562 291.757812 L 285.253906 638.988281 Z M 633.015625 291.226562 " clip-rule="nonzero"/></clipPath><clipPath id="3e6029659c"><path d="M 105 390 L 125 390 L 125 427 L 105 427 Z M 105 390 " clip-rule="nonzero"/></clipPath><clipPath id="b2de5df75c"><path d="M 185.773438 379.789062 L 364.957031 558.972656 L 284.90625 639.019531 L 105.726562 459.839844 Z M 185.773438 379.789062 " clip-rule="nonzero"/></clipPath><clipPath id="746113eebc"><path d="M 633.015625 291.226562 L 285.785156 -56.003906 L -61.976562 291.757812 L 285.253906 638.988281 Z M 633.015625 291.226562 " clip-rule="nonzero"/></clipPath><clipPath id="63c397ad15"><path d="M 633.015625 291.226562 L 285.785156 -56.003906 L -61.976562 291.757812 L 285.253906 638.988281 Z M 633.015625 291.226562 " clip-rule="nonzero"/></clipPath><clipPath id="5719093de4"><path d="M 105 409 L 139 409 L 139 451 L 105 451 Z M 105 409 " clip-rule="nonzero"/></clipPath><clipPath id="7c4bb63b2e"><path d="M 185.773438 379.789062 L 364.957031 558.972656 L 284.90625 639.019531 L 105.726562 459.839844 Z M 185.773438 379.789062 " clip-rule="nonzero"/></clipPath><clipPath id="6e71c5733b"><path d="M 633.015625 291.226562 L 285.785156 -56.003906 L -61.976562 291.757812 L 285.253906 638.988281 Z M 633.015625 291.226562 " clip-rule="nonzero"/></clipPath><clipPath id="5b6b97408f"><path d="M 633.015625 291.226562 L 285.785156 -56.003906 L -61.976562 291.757812 L 285.253906 638.988281 Z M 633.015625 291.226562 " clip-rule="nonzero"/></clipPath><clipPath id="2718e51bdb"><path d="M 111 427 L 155 427 L 155 472 L 111 472 Z M 111 427 " clip-rule="nonzero"/></clipPath><clipPath id="cb67ae0a07"><path d="M 185.773438 379.789062 L 364.957031 558.972656 L 284.90625 639.019531 L 105.726562 459.839844 Z M 185.773438 379.789062 " clip-rule="nonzero"/></clipPath><clipPath id="000c1e50e7"><path d="M 633.015625 291.226562 L 285.785156 -56.003906 L -61.976562 291.757812 L 285.253906 638.988281 Z M 633.015625 291.226562 " clip-rule="nonzero"/></clipPath><clipPath id="9c332d1c2b"><path d="M 633.015625 291.226562 L 285.785156 -56.003906 L -61.976562 291.757812 L 285.253906 638.988281 Z M 633.015625 291.226562 " clip-rule="nonzero"/></clipPath><clipPath id="243e70fb80"><path d="M 133 443 L 173 443 L 173 491 L 133 491 Z M 133 443 " clip-rule="nonzero"/></clipPath><clipPath id="5de64e74a3"><path d="M 185.773438 379.789062 L 364.957031 558.972656 L 284.90625 639.019531 L 105.726562 459.839844 Z M 185.773438 379.789062 " clip-rule="nonzero"/></clipPath><clipPath id="db9c15c5e3"><path d="M 633.015625 291.226562 L 285.785156 -56.003906 L -61.976562 291.757812 L 285.253906 638.988281 Z M 633.015625 291.226562 " clip-rule="nonzero"/></clipPath><clipPath id="16afd181b4"><path d="M 633.015625 291.226562 L 285.785156 -56.003906 L -61.976562 291.757812 L 285.253906 638.988281 Z M 633.015625 291.226562 " clip-rule="nonzero"/></clipPath><clipPath id="898ee4537b"><path d="M 177 457 L 353 457 L 353 494 L 177 494 Z M 177 457 " clip-rule="nonzero"/></clipPath><clipPath id="cc5a6149f0"><path d="M 185.773438 379.789062 L 364.957031 558.972656 L 284.90625 639.019531 L 105.726562 459.839844 Z M 185.773438 379.789062 " clip-rule="nonzero"/></clipPath><clipPath id="b247e1644e"><path d="M 633.015625 291.226562 L 285.785156 -56.003906 L -61.976562 291.757812 L 285.253906 638.988281 Z M 633.015625 291.226562 " clip-rule="nonzero"/></clipPath><clipPath id="f8770acd97"><path d="M 633.015625 291.226562 L 285.785156 -56.003906 L -61.976562 291.757812 L 285.253906 638.988281 Z M 633.015625 291.226562 " clip-rule="nonzero"/></clipPath><clipPath id="7cf529467c"><path d="M 156 491 L 365 491 L 365 534 L 156 534 Z M 156 491 " clip-rule="nonzero"/></clipPath><clipPath id="d62d0b1e03"><path d="M 185.773438 379.789062 L 364.957031 558.972656 L 284.90625 639.019531 L 105.726562 459.839844 Z M 185.773438 379.789062 " clip-rule="nonzero"/></clipPath><clipPath id="ae4f55e518"><path d="M 633.015625 291.226562 L 285.785156 -56.003906 L -61.976562 291.757812 L 285.253906 638.988281 Z M 633.015625 291.226562 " clip-rule="nonzero"/></clipPath><clipPath id="e3ad945e7a"><path d="M 633.015625 291.226562 L 285.785156 -56.003906 L -61.976562 291.757812 L 285.253906 638.988281 Z M 633.015625 291.226562 " clip-rule="nonzero"/></clipPath><clipPath id="f41317abc5"><path d="M 168 460 L 201 460 L 201 512 L 168 512 Z M 168 460 " clip-rule="nonzero"/></clipPath><clipPath id="5f5cec97f3"><path d="M 185.773438 379.789062 L 364.957031 558.972656 L 284.90625 639.019531 L 105.726562 459.839844 Z M 185.773438 379.789062 " clip-rule="nonzero"/></clipPath><clipPath id="5ba925f2e5"><path d="M 633.015625 291.226562 L 285.785156 -56.003906 L -61.976562 291.757812 L 285.253906 638.988281 Z M 633.015625 291.226562 " clip-rule="nonzero"/></clipPath><clipPath id="dd9886e08b"><path d="M 633.015625 291.226562 L 285.785156 -56.003906 L -61.976562 291.757812 L 285.253906 638.988281 Z M 633.015625 291.226562 " clip-rule="nonzero"/></clipPath><clipPath id="7117c3781d"><path d="M 195 470 L 222 470 L 222 524 L 195 524 Z M 195 470 " clip-rule="nonzero"/></clipPath><clipPath id="5d3a89fb03"><path d="M 185.773438 379.789062 L 364.957031 558.972656 L 284.90625 639.019531 L 105.726562 459.839844 Z M 185.773438 379.789062 " clip-rule="nonzero"/></clipPath><clipPath id="59ea1616ad"><path d="M 633.015625 291.226562 L 285.785156 -56.003906 L -61.976562 291.757812 L 285.253906 638.988281 Z M 633.015625 291.226562 " clip-rule="nonzero"/></clipPath><clipPath id="9c36dd1a8c"><path d="M 633.015625 291.226562 L 285.785156 -56.003906 L -61.976562 291.757812 L 285.253906 638.988281 Z M 633.015625 291.226562 " clip-rule="nonzero"/></clipPath><clipPath id="dc2ad8d3af"><path d="M 223 477 L 245 477 L 245 532 L 223 532 Z M 223 477 " clip-rule="nonzero"/></clipPath><clipPath id="b580bf1091"><path d="M 185.773438 379.789062 L 364.957031 558.972656 L 284.90625 639.019531 L 105.726562 459.839844 Z M 185.773438 379.789062 " clip-rule="nonzero"/></clipPath><clipPath id="950ca8e1fa"><path d="M 633.015625 291.226562 L 285.785156 -56.003906 L -61.976562 291.757812 L 285.253906 638.988281 Z M 633.015625 291.226562 " clip-rule="nonzero"/></clipPath><clipPath id="e59b37f356"><path d="M 633.015625 291.226562 L 285.785156 -56.003906 L -61.976562 291.757812 L 285.253906 638.988281 Z M 633.015625 291.226562 " clip-rule="nonzero"/></clipPath><clipPath id="36c4f7f52d"><path d="M 253 482 L 268 482 L 268 537 L 253 537 Z M 253 482 " clip-rule="nonzero"/></clipPath><clipPath id="431b938ac6"><path d="M 185.773438 379.789062 L 364.957031 558.972656 L 284.90625 639.019531 L 105.726562 459.839844 Z M 185.773438 379.789062 " clip-rule="nonzero"/></clipPath><clipPath id="995ded4e22"><path d="M 633.015625 291.226562 L 285.785156 -56.003906 L -61.976562 291.757812 L 285.253906 638.988281 Z M 633.015625 291.226562 " clip-rule="nonzero"/></clipPath><clipPath id="08ef2957f4"><path d="M 633.015625 291.226562 L 285.785156 -56.003906 L -61.976562 291.757812 L 285.253906 638.988281 Z M 633.015625 291.226562 " clip-rule="nonzero"/></clipPath><clipPath id="d2aecd526d"><path d="M 283 483 L 293 483 L 293 538 L 283 538 Z M 283 483 " clip-rule="nonzero"/></clipPath><clipPath id="cabe849be5"><path d="M 185.773438 379.789062 L 364.957031 558.972656 L 284.90625 639.019531 L 105.726562 459.839844 Z M 185.773438 379.789062 " clip-rule="nonzero"/></clipPath><clipPath id="762ff025cd"><path d="M 633.015625 291.226562 L 285.785156 -56.003906 L -61.976562 291.757812 L 285.253906 638.988281 Z M 633.015625 291.226562 " clip-rule="nonzero"/></clipPath><clipPath id="993fe9cbf3"><path d="M 633.015625 291.226562 L 285.785156 -56.003906 L -61.976562 291.757812 L 285.253906 638.988281 Z M 633.015625 291.226562 " clip-rule="nonzero"/></clipPath><clipPath id="873901bf63"><path d="M 306 481 L 323 481 L 323 536 L 306 536 Z M 306 481 " clip-rule="nonzero"/></clipPath><clipPath id="009c5878d4"><path d="M 185.773438 379.789062 L 364.957031 558.972656 L 284.90625 639.019531 L 105.726562 459.839844 Z M 185.773438 379.789062 " clip-rule="nonzero"/></clipPath><clipPath id="4a2f709907"><path d="M 633.015625 291.226562 L 285.785156 -56.003906 L -61.976562 291.757812 L 285.253906 638.988281 Z M 633.015625 291.226562 " clip-rule="nonzero"/></clipPath><clipPath id="82b4d83b3d"><path d="M 633.015625 291.226562 L 285.785156 -56.003906 L -61.976562 291.757812 L 285.253906 638.988281 Z M 633.015625 291.226562 " clip-rule="nonzero"/></clipPath><clipPath id="e5609b4862"><path d="M 330 476 L 352 476 L 352 531 L 330 531 Z M 330 476 " clip-rule="nonzero"/></clipPath><clipPath id="c4e1600ae6"><path d="M 185.773438 379.789062 L 364.957031 558.972656 L 284.90625 639.019531 L 105.726562 459.839844 Z M 185.773438 379.789062 " clip-rule="nonzero"/></clipPath><clipPath id="9f2e57e2eb"><path d="M 633.015625 291.226562 L 285.785156 -56.003906 L -61.976562 291.757812 L 285.253906 638.988281 Z M 633.015625 291.226562 " clip-rule="nonzero"/></clipPath><clipPath id="ea5642c307"><path d="M 633.015625 291.226562 L 285.785156 -56.003906 L -61.976562 291.757812 L 285.253906 638.988281 Z M 633.015625 291.226562 " clip-rule="nonzero"/></clipPath><clipPath id="2cab9afe0e"><path d="M 350 379 L 365 379 L 365 483 L 350 483 Z M 350 379 " clip-rule="nonzero"/></clipPath><clipPath id="42f6126f6e"><path d="M 185.773438 379.789062 L 364.957031 558.972656 L 284.90625 639.019531 L 105.726562 459.839844 Z M 185.773438 379.789062 " clip-rule="nonzero"/></clipPath><clipPath id="6a7805d629"><path d="M 633.015625 291.226562 L 285.785156 -56.003906 L -61.976562 291.757812 L 285.253906 638.988281 Z M 633.015625 291.226562 " clip-rule="nonzero"/></clipPath><clipPath id="d18f5a8318"><path d="M 633.015625 291.226562 L 285.785156 -56.003906 L -61.976562 291.757812 L 285.253906 638.988281 Z M 633.015625 291.226562 " clip-rule="nonzero"/></clipPath><clipPath id="f9630cbfcc"><path d="M 363 379 L 365 379 L 365 520 L 363 520 Z M 363 379 " clip-rule="nonzero"/></clipPath><clipPath id="c68b209315"><path d="M 185.773438 379.789062 L 364.957031 558.972656 L 284.90625 639.019531 L 105.726562 459.839844 Z M 185.773438 379.789062 " clip-rule="nonzero"/></clipPath><clipPath id="7a59608c7f"><path d="M 633.015625 291.226562 L 285.785156 -56.003906 L -61.976562 291.757812 L 285.253906 638.988281 Z M 633.015625 291.226562 " clip-rule="nonzero"/></clipPath><clipPath id="af43f03121"><path d="M 633.015625 291.226562 L 285.785156 -56.003906 L -61.976562 291.757812 L 285.253906 638.988281 Z M 633.015625 291.226562 " clip-rule="nonzero"/></clipPath><clipPath id="11a0056b01"><path d="M 360 465 L 365 465 L 365 518 L 360 518 Z M 360 465 " clip-rule="nonzero"/></clipPath><clipPath id="34f75f2af0"><path d="M 185.773438 379.789062 L 364.957031 558.972656 L 284.90625 639.019531 L 105.726562 459.839844 Z M 185.773438 379.789062 " clip-rule="nonzero"/></clipPath><clipPath id="1d0a5acd86"><path d="M 633.015625 291.226562 L 285.785156 -56.003906 L -61.976562 291.757812 L 285.253906 638.988281 Z M 633.015625 291.226562 " clip-rule="nonzero"/></clipPath><clipPath id="298fe534e5"><path d="M 633.015625 291.226562 L 285.785156 -56.003906 L -61.976562 291.757812 L 285.253906 638.988281 Z M 633.015625 291.226562 " clip-rule="nonzero"/></clipPath></defs><g clip-path="url(#436306470e)"><path fill="#ffffff" d="M 0.113281 0 L 572.886719 0 L 572.886719 639.5 L 0.113281 639.5 Z M 0.113281 0 " fill-opacity="0" fill-rule="nonzero"/></g><g clip-path="url(#5afb5eb3e3)"><path fill="#040606" d="M 286.261719 441.265625 C 201.816406 441.265625 133.113281 372.554688 133.113281 288.128906 C 133.113281 232.347656 163.109375 183.425781 207.820312 156.65625 C 209.519531 157.902344 211.652344 158.75 214.371094 158.75 C 214.371094 158.75 217.308594 158.75 198.539062 173.410156 C 179.765625 188.089844 181.515625 208.433594 187.378906 195.628906 C 193.253906 182.804688 198.539062 187.5 189.148438 205.695312 C 179.765625 223.894531 194.085938 218.015625 198.9375 229.160156 C 203.816406 240.304688 205.574219 226.820312 207.914062 247.945312 C 207.914062 247.945312 213.804688 254.980469 224.351562 251.460938 C 234.914062 247.945312 222.59375 260.835938 211.441406 271.410156 C 200.289062 281.976562 203.808594 285.480469 209.683594 291.941406 C 215.546875 298.40625 217.90625 303.671875 212.621094 310.726562 C 207.34375 317.761719 220.832031 320.101562 224.351562 324.207031 C 227.871094 328.316406 227.277344 341.816406 219.074219 347.691406 C 210.871094 353.546875 223.179688 366.457031 221.40625 384.652344 C 219.644531 402.828125 220.078125 410.457031 228.371094 411.632812 C 236.671875 412.808594 227.277344 395.792969 230.800781 388.167969 C 234.324219 380.546875 238.441406 393.457031 246.648438 372.917969 C 246.648438 372.917969 261.328125 376.4375 267.757812 354.136719 C 267.757812 354.136719 280.667969 352.367188 283.023438 345.332031 C 285.378906 338.296875 282.433594 333.601562 301.203125 318.351562 C 319.96875 303.085938 288.292969 291.351562 271.292969 290.765625 C 271.292969 290.765625 265.054688 293.3125 275.988281 273.746094 C 280.753906 265.203125 266.59375 267.300781 263.078125 259.675781 C 259.558594 252.050781 251.347656 243.25 234.914062 245 C 218.484375 246.765625 213.773438 252.640625 213.207031 242.65625 C 212.621094 232.675781 220.234375 227.996094 212.023438 226.820312 C 203.816406 225.640625 207.914062 225.050781 216.738281 216.835938 C 216.738281 216.835938 211.441406 213.300781 206.164062 218.605469 C 200.878906 223.894531 191.488281 215.675781 202.640625 203.945312 C 213.804688 192.195312 231.386719 183.390625 230.214844 205.695312 C 229.046875 227.996094 237.261719 195.628906 237.261719 195.628906 C 237.261719 195.628906 249.582031 179.875 264.84375 178.714844 C 280.078125 177.535156 270.703125 176.945312 270.703125 171.660156 C 270.703125 166.394531 277.738281 180.464844 286.261719 176.945312 C 294.753906 173.410156 277.148438 172.253906 278.917969 166.394531 C 280.667969 160.519531 290.664062 162.269531 294.753906 169.910156 C 298.863281 177.535156 303.558594 165.804688 293.003906 153.46875 C 282.433594 141.160156 284.203125 148.789062 274.222656 154.054688 C 264.253906 159.339844 268.363281 162.269531 266.59375 153.46875 C 264.84375 144.679688 264.253906 154.054688 259.558594 149.375 C 254.847656 144.679688 267.929688 146.84375 274.808594 147.609375 C 281.691406 148.351562 279.507812 143.5 279.507812 143.5 L 286.261719 140.574219 C 286.261719 140.574219 290.664062 147.019531 295.933594 145.84375 C 301.203125 144.679688 292.414062 136.449219 297.683594 137.628906 C 302.96875 138.804688 310.003906 134.109375 310.59375 141.160156 C 311.183594 148.195312 306.484375 157.589844 325.859375 147.019531 C 329.777344 144.886719 332.394531 143.5 334.175781 142.671875 C 335.496094 143.105469 336.777344 143.554688 338.074219 144.039062 C 338.195312 145.441406 338.648438 147.265625 341.109375 148.789062 C 348.734375 153.46875 346.394531 149.359375 356.359375 155.234375 C 366.339844 161.109375 359.878906 167.554688 367.5 168.730469 C 375.125 169.910156 382.179688 180.464844 376.324219 181.054688 C 370.449219 181.640625 369.859375 174.609375 361.074219 173.410156 C 352.253906 172.253906 364.59375 176.339844 370.449219 181.640625 C 376.324219 186.910156 376.324219 193.167969 370.449219 195.628906 C 364.59375 198.074219 368.921875 211.570312 378.488281 209.804688 C 388.054688 208.035156 384.519531 198.074219 389.800781 200.425781 C 395.089844 202.765625 393.320312 208.625 402.125 212.15625 C 410.945312 215.675781 400.945312 220.355469 411.519531 220.941406 C 422.089844 221.535156 427.355469 225.640625 417.964844 229.746094 C 408.574219 233.875 413.285156 237.371094 405.054688 227.390625 C 396.839844 217.429688 397.65625 226.976562 396.839844 217.429688 C 396.042969 207.878906 382.769531 216.835938 375.734375 218.015625 C 368.683594 219.191406 374.554688 226.230469 368.089844 227.390625 C 361.628906 228.574219 358.699219 226.820312 360.464844 242.070312 C 362.21875 257.339844 358.125 260.835938 351.070312 260.835938 C 344.039062 260.835938 356.964844 269.050781 360.464844 279.621094 C 363.984375 290.175781 364.59375 296.636719 379.839844 292.53125 C 395.089844 288.425781 390.390625 288.425781 392.160156 296.636719 C 393.910156 304.851562 400.375 291.941406 401.535156 300.15625 C 402.714844 308.367188 386.875 310.136719 395.660156 315.402344 C 404.464844 320.675781 398.035156 333.011719 393.910156 335.941406 C 389.800781 338.886719 392.734375 349.421875 383.945312 354.136719 C 375.125 358.832031 388.054688 367.027344 382.769531 372.332031 C 377.5 377.613281 363.398438 384.0625 368.683594 396.976562 C 373.980469 409.863281 373.980469 402.238281 385.125 392.847656 C 396.25 383.472656 405.660156 367.632812 410.945312 368.222656 C 412.835938 368.433594 413.734375 369.902344 414.859375 371.152344 C 387.539062 413.316406 340.101562 441.265625 286.261719 441.265625 Z M 286.261719 126.1875 C 196.957031 126.1875 124.3125 198.832031 124.3125 288.128906 C 124.3125 377.410156 196.957031 450.066406 286.261719 450.066406 C 375.542969 450.066406 448.1875 377.410156 448.1875 288.128906 C 448.1875 198.832031 375.542969 126.1875 286.261719 126.1875 " fill-opacity="1" fill-rule="nonzero"/></g><g fill="#000000" fill-opacity="1"><g transform="translate(127.707221, 408.817384)"><g><path d="M 10.703125 -8.640625 C 11.429688 -7.597656 12.015625 -6.632812 12.453125 -5.75 C 12.890625 -4.875 13.222656 -4.101562 13.453125 -3.4375 L 6.6875 1.265625 C 6.4375 0.609375 6.144531 -0.0703125 5.8125 -0.78125 C 5.476562 -1.5 5.0625 -2.21875 4.5625 -2.9375 C 3.90625 -3.882812 3.132812 -4.609375 2.25 -5.109375 C 1.375 -5.609375 0.289062 -5.734375 -1 -5.484375 C -2.300781 -5.234375 -3.882812 -4.457031 -5.75 -3.15625 L -41.65625 21.765625 L -47.296875 13.640625 L -11.453125 -11.25 C -8.160156 -13.519531 -5.148438 -14.84375 -2.421875 -15.21875 C 0.296875 -15.601562 2.742188 -15.203125 4.921875 -14.015625 C 7.109375 -12.828125 9.035156 -11.035156 10.703125 -8.640625 Z M 10.703125 -8.640625 "/></g></g></g><g fill="#000000" fill-opacity="1"><g transform="translate(116.271582, 395.066736)"><g><path d="M -41.78125 -33.515625 C -38.539062 -35.054688 -35.398438 -36.050781 -32.359375 -36.5 C -29.316406 -36.957031 -26.445312 -36.820312 -23.75 -36.09375 C -21.050781 -35.363281 -18.585938 -33.984375 -16.359375 -31.953125 C -14.128906 -29.929688 -12.203125 -27.203125 -10.578125 -23.765625 C -8.941406 -20.316406 -8.039062 -17.09375 -7.875 -14.09375 C -7.71875 -11.09375 -8.207031 -8.3125 -9.34375 -5.75 C -10.476562 -3.195312 -12.1875 -0.882812 -14.46875 1.1875 C -16.757812 3.257812 -19.539062 5.070312 -22.8125 6.625 C -27.164062 8.6875 -31.300781 9.773438 -35.21875 9.890625 C -39.144531 10.003906 -42.707031 8.992188 -45.90625 6.859375 C -49.101562 4.734375 -51.796875 1.375 -53.984375 -3.21875 C -56.148438 -7.789062 -57.039062 -11.972656 -56.65625 -15.765625 C -56.269531 -19.566406 -54.789062 -22.953125 -52.21875 -25.921875 C -49.644531 -28.898438 -46.164062 -31.429688 -41.78125 -33.515625 Z M -27.1875 -2.75 C -24.257812 -4.144531 -21.90625 -5.71875 -20.125 -7.46875 C -18.351562 -9.226562 -17.269531 -11.164062 -16.875 -13.28125 C -16.488281 -15.394531 -16.890625 -17.703125 -18.078125 -20.203125 C -19.273438 -22.734375 -20.816406 -24.515625 -22.703125 -25.546875 C -24.597656 -26.585938 -26.78125 -26.960938 -29.25 -26.671875 C -31.71875 -26.378906 -34.414062 -25.535156 -37.34375 -24.140625 C -41.769531 -22.046875 -44.859375 -19.566406 -46.609375 -16.703125 C -48.359375 -13.847656 -48.335938 -10.53125 -46.546875 -6.75 C -45.347656 -4.226562 -43.796875 -2.445312 -41.890625 -1.40625 C -39.992188 -0.375 -37.8125 0.0078125 -35.34375 -0.25 C -32.875 -0.507812 -30.15625 -1.34375 -27.1875 -2.75 Z M -27.1875 -2.75 "/></g></g></g><g fill="#000000" fill-opacity="1"><g transform="translate(96.071971, 352.666057)"><g><path d="M -49.875 -8.203125 C -50.84375 -12.328125 -51.144531 -15.84375 -50.78125 -18.75 C -50.425781 -21.65625 -49.398438 -24 -47.703125 -25.78125 C -46.003906 -27.5625 -43.625 -28.816406 -40.5625 -29.546875 C -38.476562 -30.035156 -36.566406 -30.066406 -34.828125 -29.640625 C -33.097656 -29.222656 -31.539062 -28.5 -30.15625 -27.46875 C -28.78125 -26.4375 -27.570312 -25.257812 -26.53125 -23.9375 L -9.921875 -41.96875 L -7.40625 -31.296875 L -22.25 -16.328125 L -21.03125 -11.21875 L -3.625 -15.34375 L -1.359375 -5.71875 L -46.75 5.015625 Z M -41.8125 -9.375 L -41.125 -6.46875 L -28.859375 -9.375 L -29.59375 -12.46875 C -30.351562 -15.65625 -31.425781 -17.8125 -32.8125 -18.9375 C -34.207031 -20.070312 -35.9375 -20.394531 -38 -19.90625 C -40.15625 -19.394531 -41.515625 -18.289062 -42.078125 -16.59375 C -42.640625 -14.894531 -42.550781 -12.488281 -41.8125 -9.375 Z M -41.8125 -9.375 "/></g></g></g><g fill="#000000" fill-opacity="1"><g transform="translate(86.506369, 315.508546)"><g><path d="M -25.0625 -43.84375 C -19.820312 -44 -15.410156 -43.125 -11.828125 -41.21875 C -8.242188 -39.3125 -5.507812 -36.476562 -3.625 -32.71875 C -1.738281 -28.96875 -0.71875 -24.414062 -0.5625 -19.0625 L -0.171875 -5.875 L -46.796875 -4.515625 L -47.21875 -19.140625 C -47.363281 -24.023438 -46.617188 -28.285156 -44.984375 -31.921875 C -43.359375 -35.566406 -40.878906 -38.425781 -37.546875 -40.5 C -34.222656 -42.582031 -30.0625 -43.695312 -25.0625 -43.84375 Z M -24.5 -33.59375 C -27.9375 -33.488281 -30.753906 -32.898438 -32.953125 -31.828125 C -35.148438 -30.753906 -36.75 -29.21875 -37.75 -27.21875 C -38.757812 -25.21875 -39.21875 -22.769531 -39.125 -19.875 L -38.984375 -14.640625 L -8.640625 -15.53125 L -8.75 -19.75 C -8.894531 -24.570312 -10.285156 -28.117188 -12.921875 -30.390625 C -15.566406 -32.671875 -19.425781 -33.738281 -24.5 -33.59375 Z M -24.5 -33.59375 "/></g></g></g><g fill="#000000" fill-opacity="1"><g transform="translate(85.349452, 271.694059)"><g><path d="M 5.1875 -32.3125 L 0.9375 -5.796875 L -45.109375 -13.1875 L -40.859375 -39.703125 L -32.859375 -38.421875 L -35.546875 -21.671875 L -25.4375 -20.046875 L -22.9375 -35.625 L -14.9375 -34.34375 L -17.4375 -18.765625 L -5.5625 -16.859375 L -2.875 -33.609375 Z M 5.1875 -32.3125 "/></g></g></g><g fill="#000000" fill-opacity="1"><g transform="translate(89.14869, 239.937335)"><g><path d="M 16.5625 -44.234375 L 12.15625 -32.46875 L -28 -25.859375 L -28.109375 -25.578125 C -26.703125 -25.140625 -25.285156 -24.6875 -23.859375 -24.21875 C -22.441406 -23.757812 -21.03125 -23.300781 -19.625 -22.84375 C -18.21875 -22.382812 -16.8125 -21.925781 -15.40625 -21.46875 L 5.15625 -13.765625 L 2.0625 -5.5 L -41.609375 -21.859375 L -37.234375 -33.53125 L 2.578125 -40.25 L 2.65625 -40.46875 C 1.28125 -40.925781 -0.0820312 -41.375 -1.4375 -41.8125 C -2.800781 -42.25 -4.15625 -42.691406 -5.5 -43.140625 C -6.851562 -43.597656 -8.207031 -44.054688 -9.5625 -44.515625 L -30.234375 -52.265625 L -27.109375 -60.59375 Z M 16.5625 -44.234375 "/></g></g></g><g fill="#000000" fill-opacity="1"><g transform="translate(107.459366, 194.187041)"><g/></g></g><g fill="#000000" fill-opacity="1"><g transform="translate(113.30196, 181.63005)"><g><path d="M -25.46875 -43.640625 C -22.914062 -47.023438 -20.40625 -49.503906 -17.9375 -51.078125 C -15.46875 -52.648438 -13.003906 -53.351562 -10.546875 -53.1875 C -8.085938 -53.019531 -5.601562 -51.988281 -3.09375 -50.09375 C -1.394531 -48.800781 -0.15625 -47.351562 0.625 -45.75 C 1.40625 -44.144531 1.835938 -42.484375 1.921875 -40.765625 C 2.015625 -39.046875 1.882812 -37.359375 1.53125 -35.703125 L 26 -34.40625 L 19.390625 -25.65625 L -1.609375 -27.546875 L -4.78125 -23.359375 L 9.5 -12.578125 L 3.546875 -4.6875 L -33.65625 -32.8125 Z M -19.4375 -38.1875 L -21.234375 -35.8125 L -11.1875 -28.21875 L -9.265625 -30.765625 C -7.285156 -33.367188 -6.304688 -35.5625 -6.328125 -37.34375 C -6.347656 -39.132812 -7.207031 -40.671875 -8.90625 -41.953125 C -10.664062 -43.285156 -12.375 -43.628906 -14.03125 -42.984375 C -15.695312 -42.335938 -17.5 -40.738281 -19.4375 -38.1875 Z M -19.4375 -38.1875 "/></g></g></g><g fill="#000000" fill-opacity="1"><g transform="translate(135.747387, 150.565557)"><g><path d="M 2.296875 -63.953125 L 22.171875 -41.234375 C 24.285156 -38.816406 25.660156 -36.171875 26.296875 -33.296875 C 26.929688 -30.421875 26.664062 -27.472656 25.5 -24.453125 C 24.34375 -21.429688 22.128906 -18.492188 18.859375 -15.640625 C 14.222656 -11.578125 9.648438 -9.664062 5.140625 -9.90625 C 0.628906 -10.15625 -3.332031 -12.238281 -6.75 -16.15625 L -26.53125 -38.765625 L -19.109375 -45.25 L -0.3125 -23.765625 C 2.21875 -20.859375 4.585938 -19.335938 6.796875 -19.203125 C 9.003906 -19.078125 11.265625 -20.03125 13.578125 -22.0625 C 15.210938 -23.488281 16.296875 -24.925781 16.828125 -26.375 C 17.359375 -27.832031 17.351562 -29.351562 16.8125 -30.9375 C 16.269531 -32.519531 15.207031 -34.21875 13.625 -36.03125 L -5.125 -57.46875 Z M 2.296875 -63.953125 "/></g></g></g><g fill="#000000" fill-opacity="1"><g transform="translate(168.397943, 120.935175)"><g><path d="M 41.65625 -22.265625 L 30.578125 -16.34375 L -3.953125 -37.890625 L -4.21875 -37.75 C -3.4375 -36.507812 -2.664062 -35.242188 -1.90625 -33.953125 C -1.144531 -32.671875 -0.390625 -31.390625 0.359375 -30.109375 C 1.117188 -28.835938 1.875 -27.566406 2.625 -26.296875 L 12.96875 -6.9375 L 5.1875 -2.765625 L -16.796875 -43.890625 L -5.8125 -49.78125 L 28.515625 -28.53125 L 28.71875 -28.640625 C 27.988281 -29.878906 27.257812 -31.113281 26.53125 -32.34375 C 25.800781 -33.582031 25.078125 -34.8125 24.359375 -36.03125 C 23.648438 -37.257812 22.941406 -38.492188 22.234375 -39.734375 L 11.828125 -59.203125 L 19.671875 -63.390625 Z M 41.65625 -22.265625 "/></g></g></g><g fill="#000000" fill-opacity="1"><g transform="translate(211.091667, 98.427886)"><g><path d="M 22.875 -6.796875 L 13.390625 -3.984375 L 2.4375 -40.796875 L -9.6875 -37.1875 L -12.03125 -45.078125 L 21.71875 -55.125 L 24.0625 -47.234375 L 11.921875 -43.609375 Z M 22.875 -6.796875 "/></g></g></g><g fill="#000000" fill-opacity="1"><g transform="translate(244.619199, 88.923632)"><g/></g></g><g fill="#000000" fill-opacity="1"><g transform="translate(258.171422, 85.644703)"><g><path d="M 18.9375 -47.421875 C 24.957031 -47.648438 29.394531 -46.523438 32.25 -44.046875 C 35.113281 -41.578125 36.632812 -38.078125 36.8125 -33.546875 C 36.894531 -31.515625 36.660156 -29.554688 36.109375 -27.671875 C 35.566406 -25.785156 34.625 -24.09375 33.28125 -22.59375 C 31.945312 -21.09375 30.140625 -19.878906 27.859375 -18.953125 C 25.585938 -18.023438 22.75 -17.492188 19.34375 -17.359375 L 15.109375 -17.1875 L 15.75 -0.609375 L 5.875 -0.234375 L 4.0625 -46.84375 Z M 18.734375 -39.28125 L 14.25 -39.109375 L 14.796875 -25.28125 L 18.046875 -25.40625 C 19.890625 -25.476562 21.484375 -25.785156 22.828125 -26.328125 C 24.171875 -26.867188 25.191406 -27.675781 25.890625 -28.75 C 26.597656 -29.820312 26.921875 -31.171875 26.859375 -32.796875 C 26.765625 -35.097656 26.054688 -36.78125 24.734375 -37.84375 C 23.421875 -38.90625 21.421875 -39.382812 18.734375 -39.28125 Z M 18.734375 -39.28125 "/></g></g></g><g fill="#000000" fill-opacity="1"><g transform="translate(294.625687, 83.597364)"><g><path d="M 34.03125 5.21875 L 32.359375 -6.265625 L 15.5625 -8.84375 L 10.53125 1.609375 L 0 0 L 23.359375 -43.78125 L 35.3125 -41.953125 L 44.5625 6.828125 Z M 31.28125 -14.828125 L 29.578125 -26.0625 C 29.484375 -26.8125 29.347656 -27.769531 29.171875 -28.9375 C 28.992188 -30.113281 28.820312 -31.3125 28.65625 -32.53125 C 28.488281 -33.757812 28.363281 -34.820312 28.28125 -35.71875 C 27.945312 -34.882812 27.492188 -33.859375 26.921875 -32.640625 C 26.359375 -31.429688 25.820312 -30.28125 25.3125 -29.1875 C 24.800781 -28.101562 24.4375 -27.332031 24.21875 -26.875 L 19.265625 -16.671875 Z M 28.640625 -38.4375 C 26.304688 -38.789062 24.519531 -39.75 23.28125 -41.3125 C 22.050781 -42.875 21.613281 -44.816406 21.96875 -47.140625 C 22.320312 -49.453125 23.320312 -51.164062 24.96875 -52.28125 C 26.613281 -53.394531 28.601562 -53.773438 30.9375 -53.421875 C 33.164062 -53.078125 34.957031 -52.117188 36.3125 -50.546875 C 37.664062 -48.984375 38.164062 -47.054688 37.8125 -44.765625 C 37.445312 -42.421875 36.390625 -40.691406 34.640625 -39.578125 C 32.890625 -38.472656 30.890625 -38.09375 28.640625 -38.4375 Z M 29.328125 -42.875 C 30.179688 -42.738281 30.941406 -42.898438 31.609375 -43.359375 C 32.273438 -43.816406 32.679688 -44.519531 32.828125 -45.46875 C 32.972656 -46.394531 32.796875 -47.175781 32.296875 -47.8125 C 31.796875 -48.445312 31.117188 -48.832031 30.265625 -48.96875 C 29.378906 -49.101562 28.609375 -48.941406 27.953125 -48.484375 C 27.296875 -48.023438 26.894531 -47.332031 26.75 -46.40625 C 26.601562 -45.457031 26.742188 -44.671875 27.171875 -44.046875 C 27.597656 -43.421875 28.316406 -43.03125 29.328125 -42.875 Z M 29.328125 -42.875 "/></g></g></g><g fill="#000000" fill-opacity="1"><g transform="translate(335.714896, 90.639809)"><g/></g></g><g fill="#000000" fill-opacity="1"><g transform="translate(350.233791, 94.896444)"><g/></g></g><g fill="#000000" fill-opacity="1"><g transform="translate(363.71865, 99.28048)"><g><path d="M 13.8125 7.234375 L 5.203125 2.71875 L 26.84375 -38.59375 L 50.515625 -26.1875 L 46.75 -19.015625 L 31.6875 -26.90625 L 26.109375 -16.25 L 40.140625 -8.90625 L 36.390625 -1.75 L 22.359375 -9.09375 Z M 13.8125 7.234375 "/></g></g></g><g fill="#000000" fill-opacity="1"><g transform="translate(392.154788, 113.543535)"><g><path d="M 32.859375 -9.421875 L 52.234375 -18.78125 L 60.703125 -12.3125 L 31.125 0.9375 L 20.109375 15.359375 L 12.296875 9.390625 L 23.125 -4.78125 L 28.3125 -37.0625 L 36.828125 -30.5625 Z M 32.859375 -9.421875 "/></g></g></g><g fill="#000000" fill-opacity="1"><g transform="translate(421.360062, 135.192396)"><g><path d="M 47.6875 -16.71875 C 50.53125 -13.570312 52.488281 -10.632812 53.5625 -7.90625 C 54.644531 -5.175781 54.863281 -2.617188 54.21875 -0.234375 C 53.582031 2.140625 52.097656 4.378906 49.765625 6.484375 C 48.171875 7.910156 46.507812 8.851562 44.78125 9.3125 C 43.0625 9.78125 41.347656 9.890625 39.640625 9.640625 C 37.941406 9.398438 36.316406 8.945312 34.765625 8.28125 L 28.828125 32.0625 L 21.5 23.90625 L 27.34375 3.65625 L 23.84375 -0.25 L 10.546875 11.71875 L 3.921875 4.375 L 38.609375 -26.8125 Z M 41.1875 -11.828125 L 39.203125 -14.046875 L 29.828125 -5.625 L 31.953125 -3.25 C 34.140625 -0.8125 36.113281 0.566406 37.875 0.890625 C 39.644531 1.210938 41.316406 0.660156 42.890625 -0.765625 C 44.535156 -2.234375 45.195312 -3.847656 44.875 -5.609375 C 44.5625 -7.367188 43.332031 -9.441406 41.1875 -11.828125 Z M 41.1875 -11.828125 "/></g></g></g><g fill="#000000" fill-opacity="1"><g transform="translate(447.509595, 163.454086)"><g><path d="M 17.59375 29.578125 L 25.390625 21 L 16.703125 6.390625 L 5.453125 9.15625 L 0 0 L 48.65625 -9.796875 L 54.84375 0.59375 L 23.046875 38.734375 Z M 31.328125 14.734375 L 38.921875 6.28125 C 39.429688 5.71875 40.085938 5 40.890625 4.125 C 41.691406 3.25 42.507812 2.359375 43.34375 1.453125 C 44.175781 0.546875 44.914062 -0.222656 45.5625 -0.859375 C 44.695312 -0.585938 43.613281 -0.285156 42.3125 0.046875 C 41.019531 0.378906 39.789062 0.691406 38.625 0.984375 C 37.457031 1.285156 36.628906 1.5 36.140625 1.625 L 25.109375 4.28125 Z M 31.328125 14.734375 "/></g></g></g><g fill="#000000" fill-opacity="1"><g transform="translate(468.185891, 199.654801)"><g/></g></g><g fill="#000000" fill-opacity="1"><g transform="translate(474.732144, 211.614896)"><g><path d="M 34.203125 37.15625 C 29.117188 38.46875 24.617188 38.59375 20.703125 37.53125 C 16.796875 36.476562 13.503906 34.332031 10.828125 31.09375 C 8.148438 27.851562 6.140625 23.644531 4.796875 18.46875 L 1.46875 5.6875 L 46.609375 -6.03125 L 50.296875 8.140625 C 51.523438 12.867188 51.75 17.191406 50.96875 21.109375 C 50.195312 25.023438 48.421875 28.363281 45.640625 31.125 C 42.859375 33.882812 39.046875 35.894531 34.203125 37.15625 Z M 31.375 27.296875 C 34.695312 26.429688 37.304688 25.226562 39.203125 23.6875 C 41.109375 22.15625 42.328125 20.300781 42.859375 18.125 C 43.398438 15.945312 43.304688 13.457031 42.578125 10.65625 L 41.265625 5.578125 L 11.875 13.21875 L 12.9375 17.3125 C 14.144531 21.976562 16.285156 25.125 19.359375 26.75 C 22.441406 28.382812 26.445312 28.566406 31.375 27.296875 Z M 31.375 27.296875 "/></g></g></g><g fill="#000000" fill-opacity="1"><g transform="translate(485.980403, 253.583587)"><g><path d="M 1.609375 34.390625 L 12.53125 30.484375 L 11.734375 13.5 L 0.5 10.640625 L 0 0 L 47.546875 14.25 L 48.109375 26.328125 L 2.109375 45.03125 Z M 20.71875 27.734375 L 31.375 23.859375 C 32.101562 23.609375 33.023438 23.28125 34.140625 22.875 C 35.253906 22.46875 36.390625 22.0625 37.546875 21.65625 C 38.710938 21.257812 39.726562 20.929688 40.59375 20.671875 C 39.707031 20.503906 38.613281 20.265625 37.3125 19.953125 C 36.019531 19.640625 34.789062 19.34375 33.625 19.0625 C 32.457031 18.78125 31.625 18.578125 31.125 18.453125 L 20.140625 15.59375 Z M 20.71875 27.734375 "/></g></g></g><g fill="#000000" fill-opacity="1"><g transform="translate(488.464734, 293.759913)"><g><path d="M 22.140625 27.40625 L 19.21875 45.671875 L -4.65625 41.859375 C -5.070312 39.316406 -5.304688 36.707031 -5.359375 34.03125 C -5.410156 31.363281 -5.171875 28.378906 -4.640625 25.078125 C -3.910156 20.492188 -2.390625 16.75 -0.078125 13.84375 C 2.234375 10.9375 5.285156 8.9375 9.078125 7.84375 C 12.878906 6.75 17.347656 6.613281 22.484375 7.4375 C 27.316406 8.207031 31.347656 9.800781 34.578125 12.21875 C 37.816406 14.632812 40.113281 17.785156 41.46875 21.671875 C 42.832031 25.566406 43.101562 30.097656 42.28125 35.265625 C 41.894531 37.691406 41.242188 40.050781 40.328125 42.34375 C 39.421875 44.644531 38.394531 46.691406 37.25 48.484375 L 29.96875 44 C 30.90625 42.707031 31.757812 41.191406 32.53125 39.453125 C 33.300781 37.722656 33.84375 35.875 34.15625 33.90625 C 34.613281 31.070312 34.359375 28.503906 33.390625 26.203125 C 32.421875 23.910156 30.851562 22.003906 28.6875 20.484375 C 26.53125 18.972656 23.863281 17.960938 20.6875 17.453125 C 17.6875 16.972656 14.960938 16.957031 12.515625 17.40625 C 10.066406 17.851562 8.046875 18.851562 6.453125 20.40625 C 4.859375 21.96875 3.832031 24.164062 3.375 27 C 3.15625 28.382812 3.035156 29.566406 3.015625 30.546875 C 3.003906 31.523438 3.003906 32.441406 3.015625 33.296875 L 12.625 34.828125 L 14.015625 26.109375 Z M 22.140625 27.40625 "/></g></g></g><g fill="#000000" fill-opacity="1"><g transform="translate(482.155007, 335.740592)"><g><path d="M -12.234375 32.171875 L -0.65625 32.9375 L 5.390625 17.046875 L -3.78125 9.953125 L 0 0 L 37.921875 32.015625 L 33.625 43.328125 L -16.015625 42.140625 Z M 7.9375 33.6875 L 19.28125 34.390625 C 20.03125 34.453125 21 34.519531 22.1875 34.59375 C 23.375 34.664062 24.582031 34.75 25.8125 34.84375 C 27.039062 34.9375 28.101562 35.035156 29 35.140625 C 28.25 34.640625 27.335938 33.984375 26.265625 33.171875 C 25.203125 32.367188 24.191406 31.601562 23.234375 30.875 C 22.285156 30.144531 21.609375 29.628906 21.203125 29.328125 L 12.25 22.328125 Z M 7.9375 33.6875 "/></g></g></g><g fill="#000000" fill-opacity="1"><g transform="translate(468.12705, 373.656165)"><g><path d="M 29.234375 41.21875 C 26.984375 44.820312 24.691406 47.515625 22.359375 49.296875 C 20.035156 51.085938 17.644531 52.003906 15.1875 52.046875 C 12.726562 52.097656 10.164062 51.289062 7.5 49.625 C 5.6875 48.488281 4.316406 47.15625 3.390625 45.625 C 2.472656 44.09375 1.894531 42.472656 1.65625 40.765625 C 1.425781 39.066406 1.414062 37.378906 1.625 35.703125 L -22.875 36.5625 L -17.046875 27.265625 L 4.03125 27.296875 L 6.8125 22.84375 L -8.359375 13.359375 L -3.109375 4.984375 L 36.4375 29.71875 Z M 22.734375 36.328125 L 24.3125 33.796875 L 13.625 27.109375 L 11.9375 29.8125 C 10.195312 32.59375 9.414062 34.875 9.59375 36.65625 C 9.769531 38.4375 10.757812 39.890625 12.5625 41.015625 C 14.4375 42.179688 16.175781 42.367188 17.78125 41.578125 C 19.382812 40.796875 21.035156 39.046875 22.734375 36.328125 Z M 22.734375 36.328125 "/></g></g></g><g clip-path="url(#cafaadd866)"><g clip-path="url(#131fbcf9a7)"><g clip-path="url(#86b438ba0d)"><g clip-path="url(#889250dd29)"><path fill="#393536" d="M 396.164062 462.394531 L 393.269531 457.796875 C 393.269531 457.796875 393.847656 457.425781 394.933594 456.726562 C 395.476562 456.378906 396.148438 455.945312 396.933594 455.4375 C 397.710938 454.914062 398.597656 454.308594 399.597656 453.628906 C 403.574219 450.90625 409.160156 446.859375 415.484375 441.519531 C 415.878906 441.183594 416.28125 440.847656 416.683594 440.507812 C 417.082031 440.160156 417.480469 439.804688 417.882812 439.449219 C 418.695312 438.742188 419.515625 438.015625 420.355469 437.277344 C 421.171875 436.519531 422.003906 435.746094 422.847656 434.960938 C 423.269531 434.570312 423.695312 434.171875 424.125 433.773438 C 424.542969 433.367188 424.964844 432.957031 425.390625 432.542969 C 428.824219 429.257812 432.269531 425.617188 435.71875 421.765625 C 439.175781 417.910156 442.554688 413.761719 445.820312 409.429688 C 449.078125 405.09375 452.246094 400.578125 455.167969 395.902344 C 461.015625 386.566406 466.105469 376.757812 470.050781 367.207031 C 472.035156 362.441406 473.804688 357.761719 475.265625 353.257812 C 475.449219 352.695312 475.648438 352.144531 475.824219 351.585938 C 475.992188 351.027344 476.164062 350.472656 476.332031 349.921875 C 476.664062 348.824219 477.027344 347.746094 477.320312 346.671875 C 477.925781 344.527344 478.53125 342.457031 479.023438 340.449219 C 481.085938 332.441406 482.296875 325.644531 483.003906 320.867188 C 483.203125 319.679688 483.335938 318.609375 483.457031 317.679688 C 483.582031 316.75 483.683594 315.960938 483.773438 315.320312 C 483.863281 314.679688 483.898438 314.183594 483.941406 313.851562 C 483.972656 313.519531 483.992188 313.347656 483.992188 313.347656 L 489.390625 313.957031 C 489.390625 313.957031 489.371094 314.132812 489.332031 314.472656 C 489.292969 314.8125 489.257812 315.320312 489.164062 315.976562 C 489.074219 316.636719 488.96875 317.449219 488.84375 318.402344 C 488.714844 319.359375 488.578125 320.457031 488.378906 321.679688 C 487.652344 326.585938 486.402344 333.570312 484.28125 341.804688 C 483.777344 343.867188 483.15625 345.992188 482.535156 348.195312 C 482.230469 349.300781 481.863281 350.40625 481.519531 351.539062 C 481.347656 352.101562 481.171875 352.671875 480.992188 353.246094 C 480.8125 353.820312 480.609375 354.386719 480.421875 354.96875 C 478.917969 359.59375 477.105469 364.402344 475.058594 369.300781 C 471.007812 379.117188 465.777344 389.203125 459.761719 398.800781 C 456.761719 403.601562 453.507812 408.246094 450.15625 412.703125 C 446.800781 417.15625 443.332031 421.417969 439.777344 425.375 C 436.234375 429.335938 432.695312 433.074219 429.167969 436.441406 C 428.734375 436.867188 428.300781 437.292969 427.871094 437.710938 C 427.429688 438.121094 426.992188 438.527344 426.558594 438.929688 C 425.691406 439.738281 424.835938 440.527344 423.996094 441.308594 C 423.132812 442.0625 422.289062 442.808594 421.457031 443.539062 C 421.042969 443.90625 420.632812 444.269531 420.226562 444.625 C 419.8125 444.976562 419.398438 445.320312 418.992188 445.664062 C 412.5 451.152344 406.757812 455.3125 402.667969 458.113281 C 401.644531 458.808594 400.726562 459.429688 399.933594 459.96875 C 399.125 460.492188 398.433594 460.933594 397.875 461.292969 C 396.757812 462.011719 396.164062 462.394531 396.164062 462.394531 " fill-opacity="1" fill-rule="nonzero"/></g></g></g></g><g clip-path="url(#dc0d9b87d9)"><g clip-path="url(#ddc5d5aeda)"><g clip-path="url(#17c5895a84)"><g clip-path="url(#169738b68c)"><path fill="#393536" d="M 417.332031 496.011719 L 414.4375 491.414062 C 414.4375 491.414062 415.136719 490.964844 416.441406 490.125 C 417.097656 489.707031 417.902344 489.183594 418.847656 488.574219 C 419.78125 487.941406 420.851562 487.214844 422.050781 486.402344 C 426.835938 483.125 433.558594 478.257812 441.148438 471.84375 C 441.625 471.441406 442.101562 471.035156 442.585938 470.628906 C 443.0625 470.210938 443.542969 469.785156 444.027344 469.359375 C 445 468.507812 445.984375 467.632812 446.988281 466.75 C 447.972656 465.839844 448.972656 464.914062 449.984375 463.976562 C 450.492188 463.503906 451 463.03125 451.511719 462.554688 C 452.015625 462.0625 452.519531 461.570312 453.03125 461.074219 C 457.136719 457.136719 461.273438 452.785156 465.40625 448.160156 C 469.550781 443.535156 473.613281 438.554688 477.539062 433.347656 C 481.460938 428.132812 485.261719 422.695312 488.78125 417.070312 C 495.828125 405.835938 501.949219 394.019531 506.703125 382.527344 C 509.089844 376.789062 511.210938 371.160156 512.976562 365.742188 C 513.199219 365.066406 513.433594 364.398438 513.640625 363.730469 C 513.851562 363.058594 514.058594 362.390625 514.261719 361.730469 C 514.660156 360.40625 515.085938 359.113281 515.449219 357.824219 C 516.179688 355.246094 516.898438 352.753906 517.492188 350.339844 C 519.972656 340.710938 521.429688 332.542969 522.28125 326.8125 C 522.515625 325.378906 522.679688 324.09375 522.824219 322.976562 C 522.972656 321.863281 523.097656 320.914062 523.199219 320.144531 C 523.304688 319.375 523.351562 318.78125 523.402344 318.382812 C 523.445312 317.984375 523.46875 317.777344 523.46875 317.777344 L 528.863281 318.382812 C 528.863281 318.382812 528.84375 318.59375 528.796875 319 C 528.75 319.410156 528.699219 320.015625 528.589844 320.800781 C 528.488281 321.589844 528.359375 322.5625 528.210938 323.703125 C 528.058594 324.847656 527.890625 326.160156 527.652344 327.621094 C 526.78125 333.488281 525.289062 341.84375 522.753906 351.695312 C 522.144531 354.164062 521.410156 356.710938 520.660156 359.347656 C 520.292969 360.667969 519.855469 361.992188 519.449219 363.347656 C 519.238281 364.023438 519.027344 364.703125 518.8125 365.394531 C 518.601562 366.078125 518.363281 366.757812 518.132812 367.453125 C 516.324219 372.992188 514.160156 378.753906 511.714844 384.625 C 506.847656 396.378906 500.589844 408.472656 493.378906 419.964844 C 489.78125 425.714844 485.890625 431.28125 481.878906 436.617188 C 477.859375 441.945312 473.707031 447.039062 469.46875 451.769531 C 465.238281 456.503906 461.007812 460.953125 456.8125 464.976562 C 456.289062 465.484375 455.773438 465.988281 455.257812 466.488281 C 454.730469 466.976562 454.210938 467.460938 453.695312 467.945312 C 452.65625 468.902344 451.636719 469.851562 450.632812 470.777344 C 449.605469 471.683594 448.59375 472.574219 447.605469 473.449219 C 447.109375 473.886719 446.613281 474.316406 446.128906 474.746094 C 445.632812 475.164062 445.144531 475.578125 444.65625 475.988281 C 436.894531 482.550781 430.015625 487.53125 425.125 490.886719 C 423.894531 491.71875 422.796875 492.460938 421.84375 493.105469 C 420.878906 493.734375 420.054688 494.265625 419.382812 494.695312 C 418.046875 495.550781 417.332031 496.011719 417.332031 496.011719 " fill-opacity="1" fill-rule="nonzero"/></g></g></g></g><g clip-path="url(#0d295c722a)"><g clip-path="url(#b3741c9f6e)"><g clip-path="url(#eb403957b4)"><g clip-path="url(#2f59ef22e2)"><path fill="#393536" d="M 455.800781 471.59375 L 419.492188 432.472656 C 419.492188 432.472656 419.824219 432.164062 420.324219 431.699219 C 420.574219 431.472656 420.863281 431.199219 421.175781 430.914062 C 421.480469 430.613281 421.808594 430.300781 422.128906 429.980469 C 423.433594 428.714844 424.730469 427.449219 424.730469 427.449219 L 462.460938 465.203125 C 462.460938 465.203125 460.808594 466.8125 459.15625 468.421875 C 458.742188 468.828125 458.332031 469.230469 457.941406 469.605469 C 457.542969 469.972656 457.175781 470.316406 456.859375 470.613281 C 456.222656 471.199219 455.800781 471.59375 455.800781 471.59375 " fill-opacity="1" fill-rule="nonzero"/></g></g></g></g><g clip-path="url(#333aaf6d4d)"><g clip-path="url(#564cfe2960)"><g clip-path="url(#3fef7dd321)"><g clip-path="url(#28aceaf34b)"><path fill="#393536" d="M 432.699219 490.570312 L 401.386719 447.347656 C 401.386719 447.347656 401.753906 447.085938 402.308594 446.691406 C 402.851562 446.285156 403.574219 445.738281 404.296875 445.195312 C 405.019531 444.648438 405.742188 444.105469 406.285156 443.699219 C 406.816406 443.277344 407.171875 442.992188 407.171875 442.992188 L 440.089844 485.007812 C 440.089844 485.007812 439.636719 485.367188 438.957031 485.90625 C 438.265625 486.429688 437.34375 487.125 436.417969 487.820312 C 435.496094 488.515625 434.574219 489.214844 433.875 489.730469 C 433.171875 490.238281 432.699219 490.570312 432.699219 490.570312 " fill-opacity="1" fill-rule="nonzero"/></g></g></g></g><g clip-path="url(#0a989f2f68)"><g clip-path="url(#18b0382901)"><g clip-path="url(#671ea1cfc5)"><g clip-path="url(#1cd14af29a)"><path fill="#393536" d="M 221.941406 481.996094 L 223.730469 476.867188 C 223.730469 476.867188 224.382812 477.085938 225.609375 477.496094 C 226.21875 477.703125 226.976562 477.957031 227.863281 478.253906 C 228.753906 478.546875 229.785156 478.851562 230.9375 479.210938 C 235.546875 480.625 242.199219 482.472656 250.3125 484.09375 C 258.425781 485.699219 268.011719 487.046875 278.347656 487.585938 C 288.679688 488.113281 299.75 487.890625 310.714844 486.625 C 316.199219 486.011719 321.652344 485.164062 326.980469 484.121094 C 332.3125 483.089844 337.503906 481.800781 342.476562 480.398438 C 347.445312 478.988281 352.203125 477.453125 356.640625 475.800781 C 357.199219 475.59375 357.75 475.394531 358.300781 475.195312 C 358.84375 474.984375 359.378906 474.769531 359.914062 474.558594 C 360.984375 474.136719 362.046875 473.738281 363.078125 473.3125 C 365.125 472.441406 367.125 471.640625 369 470.769531 C 376.546875 467.398438 382.605469 464.113281 386.777344 461.699219 C 388.882812 460.523438 390.476562 459.496094 391.585938 458.839844 C 392.695312 458.179688 393.269531 457.796875 393.269531 457.796875 L 396.164062 462.394531 C 396.164062 462.394531 395.570312 462.785156 394.433594 463.464844 C 393.292969 464.144531 391.652344 465.195312 389.492188 466.40625 C 385.207031 468.886719 378.972656 472.265625 371.21875 475.730469 C 369.289062 476.625 367.238281 477.449219 365.128906 478.34375 C 364.070312 478.78125 362.980469 479.1875 361.882812 479.625 C 361.332031 479.839844 360.777344 480.058594 360.21875 480.277344 C 359.65625 480.484375 359.085938 480.6875 358.515625 480.898438 C 353.953125 482.597656 349.0625 484.175781 343.957031 485.621094 C 338.84375 487.066406 333.511719 488.390625 328.03125 489.449219 C 322.5625 490.523438 316.953125 491.390625 311.320312 492.023438 C 300.054688 493.320312 288.679688 493.554688 278.066406 493.007812 C 267.445312 492.457031 257.597656 491.074219 249.257812 489.421875 C 240.921875 487.757812 234.085938 485.859375 229.347656 484.40625 C 228.164062 484.035156 227.105469 483.722656 226.1875 483.421875 C 225.277344 483.117188 224.5 482.855469 223.871094 482.640625 C 222.613281 482.222656 221.941406 481.996094 221.941406 481.996094 " fill-opacity="1" fill-rule="nonzero"/></g></g></g></g><g clip-path="url(#c266ca8a1a)"><g clip-path="url(#af0f96fd50)"><g clip-path="url(#42ddeed142)"><g clip-path="url(#1c4cfe77a3)"><path fill="#393536" d="M 208.851562 519.492188 L 210.644531 514.363281 C 210.644531 514.363281 211.429688 514.628906 212.902344 515.125 C 213.640625 515.371094 214.546875 515.675781 215.613281 516.035156 C 216.683594 516.386719 217.925781 516.757812 219.308594 517.1875 C 224.855469 518.890625 232.851562 521.109375 242.605469 523.054688 C 252.355469 524.988281 263.867188 526.605469 276.277344 527.25 C 288.683594 527.890625 301.972656 527.609375 315.144531 526.101562 C 321.730469 525.359375 328.28125 524.34375 334.683594 523.089844 C 341.089844 521.847656 347.328125 520.304688 353.308594 518.613281 C 359.289062 516.921875 365.007812 515.070312 370.347656 513.082031 C 371.019531 512.839844 371.679688 512.59375 372.34375 512.355469 C 372.996094 512.097656 373.648438 511.847656 374.292969 511.59375 C 375.578125 511.085938 376.855469 510.605469 378.089844 510.089844 C 380.5625 509.050781 382.960938 508.074219 385.21875 507.03125 C 394.304688 502.972656 401.605469 499.019531 406.625 496.113281 C 409.15625 494.691406 411.078125 493.46875 412.410156 492.667969 C 413.746094 491.867188 414.4375 491.414062 414.4375 491.414062 L 417.332031 496.011719 C 417.332031 496.011719 416.625 496.476562 415.257812 497.292969 C 413.894531 498.109375 411.925781 499.363281 409.339844 500.820312 C 404.203125 503.792969 396.734375 507.839844 387.4375 511.988281 C 385.128906 513.054688 382.671875 514.054688 380.144531 515.121094 C 378.875 515.644531 377.570312 516.136719 376.253906 516.65625 C 375.597656 516.914062 374.929688 517.171875 374.265625 517.4375 C 373.585938 517.683594 372.910156 517.933594 372.222656 518.179688 C 366.757812 520.214844 360.90625 522.105469 354.789062 523.839844 C 348.671875 525.570312 342.285156 527.144531 335.734375 528.417969 C 329.1875 529.703125 322.484375 530.742188 315.75 531.496094 C 302.277344 533.046875 288.683594 533.328125 275.996094 532.675781 C 263.304688 532.015625 251.523438 530.363281 241.550781 528.382812 C 231.574219 526.394531 223.394531 524.125 217.722656 522.382812 C 216.304688 521.941406 215.039062 521.5625 213.9375 521.203125 C 212.847656 520.835938 211.917969 520.523438 211.164062 520.269531 C 209.65625 519.761719 208.851562 519.492188 208.851562 519.492188 " fill-opacity="1" fill-rule="nonzero"/></g></g></g></g><g clip-path="url(#79f650801d)"><g clip-path="url(#720a7ef734)"><g clip-path="url(#7cbee75f3d)"><g clip-path="url(#c84e580e45)"><path fill="#393536" d="M 397.5625 511.785156 L 373.925781 463.933594 C 373.925781 463.933594 375.535156 463.113281 377.144531 462.289062 C 377.550781 462.085938 377.953125 461.882812 378.328125 461.683594 C 378.699219 461.484375 379.050781 461.292969 379.347656 461.132812 C 379.941406 460.808594 380.339844 460.59375 380.339844 460.59375 L 405.777344 507.515625 C 405.777344 507.515625 405.269531 507.789062 404.503906 508.203125 C 404.125 508.410156 403.679688 508.648438 403.203125 508.90625 C 402.722656 509.164062 402.203125 509.421875 401.691406 509.683594 C 399.625 510.734375 397.5625 511.785156 397.5625 511.785156 " fill-opacity="1" fill-rule="nonzero"/></g></g></g></g><g clip-path="url(#643bdba3e1)"><g clip-path="url(#e361fb6078)"><g clip-path="url(#8c1d568e8b)"><g clip-path="url(#3c9cad0207)"><path fill="#393536" d="M 369.960938 523.371094 L 352.347656 472.988281 C 352.347656 472.988281 354.046875 472.371094 355.75 471.753906 C 356.605469 471.453125 357.441406 471.121094 358.074219 470.871094 C 358.703125 470.621094 359.128906 470.457031 359.128906 470.457031 L 378.632812 520.136719 C 378.632812 520.136719 378.09375 520.347656 377.285156 520.664062 C 376.480469 520.980469 375.402344 521.40625 374.3125 521.792969 C 372.136719 522.582031 369.960938 523.371094 369.960938 523.371094 " fill-opacity="1" fill-rule="nonzero"/></g></g></g></g><g clip-path="url(#33809ef954)"><g clip-path="url(#d3651ea500)"><g clip-path="url(#41962d20be)"><g clip-path="url(#3ccac7aafb)"><path fill="#393536" d="M 341.164062 531.492188 L 329.8125 479.347656 C 329.8125 479.347656 329.921875 479.320312 330.113281 479.277344 C 330.3125 479.238281 330.585938 479.171875 330.914062 479.09375 C 331.574219 478.941406 332.460938 478.738281 333.339844 478.53125 C 333.785156 478.433594 334.222656 478.328125 334.636719 478.234375 C 335.046875 478.128906 335.429688 478.027344 335.761719 477.945312 C 336.417969 477.773438 336.855469 477.660156 336.855469 477.660156 L 350.160156 529.34375 C 350.160156 529.34375 349.601562 529.488281 348.761719 529.707031 C 348.339844 529.8125 347.851562 529.9375 347.324219 530.070312 C 346.796875 530.195312 346.234375 530.328125 345.671875 530.457031 C 344.546875 530.71875 343.417969 530.980469 342.574219 531.175781 C 342.152344 531.273438 341.796875 531.351562 341.550781 531.410156 C 341.304688 531.464844 341.164062 531.492188 341.164062 531.492188 " fill-opacity="1" fill-rule="nonzero"/></g></g></g></g><g clip-path="url(#651b12fd36)"><g clip-path="url(#078b79ab7c)"><g clip-path="url(#eebc8547aa)"><g clip-path="url(#4311c0b3d5)"><path fill="#393536" d="M 311.609375 536.058594 L 306.652344 482.921875 C 306.652344 482.921875 307.105469 482.890625 307.78125 482.8125 C 308.457031 482.738281 309.355469 482.640625 310.257812 482.542969 C 311.15625 482.449219 312.058594 482.351562 312.730469 482.253906 C 313.40625 482.164062 313.855469 482.105469 313.855469 482.105469 L 320.796875 535.023438 C 320.796875 535.023438 320.222656 535.097656 319.363281 535.207031 C 318.503906 535.332031 317.355469 535.457031 316.207031 535.578125 C 315.058594 535.703125 313.910156 535.828125 313.046875 535.921875 C 312.183594 536.015625 311.609375 536.058594 311.609375 536.058594 " fill-opacity="1" fill-rule="nonzero"/></g></g></g></g><g clip-path="url(#b355efa699)"><g clip-path="url(#f80468f75d)"><g clip-path="url(#a1f7e13d21)"><g clip-path="url(#305f0bac89)"><path fill="#393536" d="M 281.726562 537.015625 L 283.222656 483.671875 C 283.222656 483.671875 283.335938 483.675781 283.535156 483.683594 C 283.734375 483.6875 284.015625 483.707031 284.355469 483.703125 C 285.035156 483.714844 285.941406 483.726562 286.847656 483.734375 C 287.753906 483.742188 288.660156 483.769531 289.339844 483.75 C 290.019531 483.742188 290.472656 483.738281 290.472656 483.738281 L 290.972656 537.101562 C 290.972656 537.101562 290.394531 537.109375 289.527344 537.117188 C 288.660156 537.140625 287.503906 537.109375 286.351562 537.101562 C 285.191406 537.082031 284.035156 537.070312 283.171875 537.058594 C 282.738281 537.058594 282.375 537.035156 282.125 537.03125 C 281.871094 537.023438 281.726562 537.015625 281.726562 537.015625 " fill-opacity="1" fill-rule="nonzero"/></g></g></g></g><g clip-path="url(#55ff27ddbd)"><g clip-path="url(#cd940349c9)"><g clip-path="url(#8ed4e0e581)"><g clip-path="url(#e5fbe198ab)"><path fill="#393536" d="M 251.945312 534.359375 L 259.875 481.585938 C 259.875 481.585938 260.324219 481.660156 260.996094 481.765625 C 261.671875 481.855469 262.566406 481.972656 263.46875 482.09375 C 264.363281 482.207031 265.261719 482.339844 265.9375 482.414062 C 266.613281 482.484375 267.0625 482.535156 267.0625 482.535156 L 261.113281 535.5625 C 261.113281 535.5625 260.539062 535.503906 259.675781 535.40625 C 258.816406 535.3125 257.667969 535.148438 256.523438 535.003906 C 255.378906 534.851562 254.230469 534.695312 253.371094 534.582031 C 252.515625 534.449219 251.945312 534.359375 251.945312 534.359375 " fill-opacity="1" fill-rule="nonzero"/></g></g></g></g><g clip-path="url(#b10e551bea)"><g clip-path="url(#ffca75aac2)"><g clip-path="url(#40c3df20c0)"><g clip-path="url(#a8571e0f6f)"><path fill="#393536" d="M 177.832031 462.410156 L 180.726562 457.8125 C 180.726562 457.8125 180.148438 457.4375 179.0625 456.738281 C 178.519531 456.390625 177.847656 455.960938 177.0625 455.453125 C 176.285156 454.925781 175.398438 454.320312 174.398438 453.644531 C 170.425781 450.917969 164.835938 446.875 158.511719 441.53125 C 158.117188 441.199219 157.714844 440.859375 157.3125 440.519531 C 156.917969 440.171875 156.515625 439.820312 156.113281 439.460938 C 155.304688 438.753906 154.480469 438.027344 153.644531 437.292969 C 152.824219 436.53125 151.992188 435.757812 151.148438 434.976562 C 150.726562 434.582031 150.300781 434.1875 149.871094 433.789062 C 149.453125 433.378906 149.03125 432.96875 148.605469 432.554688 C 145.171875 429.273438 141.726562 425.632812 138.28125 421.777344 C 134.820312 417.925781 131.445312 413.777344 128.175781 409.445312 C 124.917969 405.105469 121.75 400.589844 118.832031 395.914062 C 112.984375 386.582031 107.890625 376.769531 103.945312 367.222656 C 101.960938 362.453125 100.191406 357.777344 98.730469 353.273438 C 98.546875 352.707031 98.347656 352.15625 98.175781 351.597656 C 98.003906 351.039062 97.832031 350.488281 97.664062 349.9375 C 97.332031 348.835938 96.96875 347.757812 96.675781 346.6875 C 96.070312 344.539062 95.464844 342.472656 94.972656 340.460938 C 92.910156 332.453125 91.699219 325.65625 90.992188 320.882812 C 90.792969 319.691406 90.660156 318.621094 90.539062 317.691406 C 90.414062 316.761719 90.3125 315.976562 90.222656 315.332031 C 90.136719 314.691406 90.097656 314.195312 90.054688 313.863281 C 90.023438 313.53125 90.003906 313.363281 90.003906 313.363281 L 84.609375 313.96875 C 84.609375 313.96875 84.625 314.144531 84.664062 314.484375 C 84.703125 314.824219 84.742188 315.332031 84.832031 315.992188 C 84.921875 316.652344 85.027344 317.460938 85.152344 318.414062 C 85.28125 319.371094 85.417969 320.46875 85.617188 321.695312 C 86.34375 326.601562 87.59375 333.585938 89.714844 341.816406 C 90.21875 343.878906 90.839844 346.003906 91.460938 348.210938 C 91.765625 349.316406 92.132812 350.421875 92.476562 351.550781 C 92.652344 352.117188 92.828125 352.683594 93.003906 353.257812 C 93.183594 353.832031 93.386719 354.402344 93.574219 354.980469 C 95.078125 359.609375 96.890625 364.414062 98.9375 369.316406 C 102.988281 379.128906 108.21875 389.214844 114.234375 398.8125 C 117.234375 403.613281 120.488281 408.257812 123.839844 412.714844 C 127.195312 417.167969 130.667969 421.429688 134.21875 425.386719 C 137.761719 429.347656 141.300781 433.085938 144.828125 436.453125 C 145.265625 436.882812 145.695312 437.304688 146.125 437.722656 C 146.566406 438.132812 147.003906 438.539062 147.4375 438.941406 C 148.304688 439.75 149.160156 440.542969 150 441.320312 C 150.863281 442.078125 151.707031 442.820312 152.539062 443.554688 C 152.953125 443.921875 153.363281 444.285156 153.773438 444.640625 C 154.183594 444.988281 154.597656 445.335938 155.003906 445.675781 C 161.5 451.167969 167.242188 455.324219 171.328125 458.125 C 172.351562 458.820312 173.269531 459.445312 174.066406 459.984375 C 174.875 460.503906 175.5625 460.945312 176.121094 461.304688 C 177.238281 462.023438 177.832031 462.410156 177.832031 462.410156 " fill-opacity="1" fill-rule="nonzero"/></g></g></g></g><g clip-path="url(#d16e799258)"><g clip-path="url(#133a8f43fb)"><g clip-path="url(#4dc4d60978)"><g clip-path="url(#19947590fe)"><path fill="#393536" d="M 156.664062 496.023438 L 159.5625 491.425781 C 159.5625 491.425781 158.863281 490.980469 157.554688 490.140625 C 156.898438 489.71875 156.09375 489.199219 155.148438 488.589844 C 154.21875 487.953125 153.144531 487.230469 151.945312 486.414062 C 147.160156 483.136719 140.441406 478.269531 132.847656 471.855469 C 132.371094 471.453125 131.894531 471.046875 131.410156 470.640625 C 130.933594 470.222656 130.453125 469.800781 129.96875 469.371094 C 128.996094 468.519531 128.011719 467.648438 127.007812 466.761719 C 126.023438 465.855469 125.023438 464.929688 124.011719 463.988281 C 123.503906 463.519531 122.996094 463.042969 122.484375 462.566406 C 121.980469 462.078125 121.476562 461.582031 120.964844 461.085938 C 116.859375 457.148438 112.722656 452.800781 108.589844 448.171875 C 104.445312 443.546875 100.382812 438.566406 96.457031 433.359375 C 92.535156 428.144531 88.734375 422.707031 85.214844 417.082031 C 78.167969 405.851562 72.050781 394.035156 67.292969 382.539062 C 64.90625 376.804688 62.785156 371.171875 61.023438 365.757812 C 60.796875 365.082031 60.5625 364.414062 60.355469 363.742188 C 60.148438 363.074219 59.9375 362.40625 59.734375 361.742188 C 59.335938 360.421875 58.910156 359.125 58.550781 357.835938 C 57.816406 355.257812 57.097656 352.765625 56.503906 350.355469 C 54.023438 340.726562 52.566406 332.554688 51.714844 326.824219 C 51.480469 325.390625 51.316406 324.109375 51.171875 322.992188 C 51.023438 321.875 50.898438 320.925781 50.800781 320.15625 C 50.691406 319.386719 50.644531 318.796875 50.59375 318.394531 C 50.550781 317.996094 50.527344 317.789062 50.527344 317.789062 L 45.132812 318.394531 C 45.132812 318.394531 45.152344 318.605469 45.199219 319.011719 C 45.246094 319.421875 45.296875 320.027344 45.40625 320.816406 C 45.507812 321.601562 45.636719 322.574219 45.785156 323.714844 C 45.9375 324.859375 46.105469 326.171875 46.34375 327.632812 C 47.214844 333.503906 48.707031 341.855469 51.242188 351.707031 C 51.851562 354.175781 52.585938 356.722656 53.335938 359.359375 C 53.703125 360.679688 54.140625 362.003906 54.546875 363.363281 C 54.757812 364.039062 54.96875 364.71875 55.183594 365.40625 C 55.394531 366.089844 55.636719 366.773438 55.863281 367.464844 C 57.671875 373.007812 59.839844 378.765625 62.28125 384.636719 C 67.148438 396.390625 73.40625 408.488281 80.617188 419.976562 C 84.214844 425.730469 88.105469 431.296875 92.117188 436.628906 C 96.136719 441.960938 100.289062 447.050781 104.527344 451.78125 C 108.757812 456.515625 112.988281 460.964844 117.183594 464.988281 C 117.707031 465.496094 118.222656 466 118.738281 466.5 C 119.265625 466.988281 119.785156 467.472656 120.300781 467.957031 C 121.339844 468.917969 122.359375 469.863281 123.367188 470.792969 C 124.390625 471.695312 125.402344 472.585938 126.390625 473.460938 C 126.886719 473.898438 127.382812 474.332031 127.867188 474.757812 C 128.363281 475.175781 128.851562 475.59375 129.339844 476 C 137.101562 482.5625 143.980469 487.542969 148.871094 490.898438 C 150.101562 491.730469 151.199219 492.472656 152.152344 493.117188 C 153.121094 493.746094 153.945312 494.277344 154.613281 494.707031 C 155.949219 495.566406 156.664062 496.023438 156.664062 496.023438 " fill-opacity="1" fill-rule="nonzero"/></g></g></g></g><g clip-path="url(#1e20da762b)"><g clip-path="url(#68003dfbe0)"><g clip-path="url(#1c8ce929ee)"><g clip-path="url(#60d5a43d45)"><path fill="#393536" d="M 64.78125 400.074219 L 112.648438 376.464844 C 112.648438 376.464844 111.863281 374.832031 111.082031 373.199219 C 110.683594 372.390625 110.324219 371.558594 110.046875 370.941406 C 109.769531 370.324219 109.582031 369.910156 109.582031 369.910156 L 60.855469 391.6875 C 60.855469 391.6875 61.09375 392.214844 61.449219 393.011719 C 61.808594 393.800781 62.269531 394.859375 62.78125 395.898438 C 63.78125 397.988281 64.78125 400.074219 64.78125 400.074219 " fill-opacity="1" fill-rule="nonzero"/></g></g></g></g><g clip-path="url(#3e6029659c)"><g clip-path="url(#b2de5df75c)"><g clip-path="url(#746113eebc)"><g clip-path="url(#63c397ad15)"><path fill="#393536" d="M 79.644531 426.058594 L 124.265625 396.773438 C 124.265625 396.773438 123.285156 395.25 122.308594 393.726562 C 121.808594 392.972656 121.359375 392.1875 121.003906 391.609375 C 120.652344 391.03125 120.417969 390.644531 120.417969 390.644531 L 74.722656 418.222656 C 74.722656 418.222656 75.023438 418.71875 75.472656 419.457031 C 75.929688 420.195312 76.507812 421.199219 77.144531 422.167969 C 78.394531 424.117188 79.644531 426.058594 79.644531 426.058594 " fill-opacity="1" fill-rule="nonzero"/></g></g></g></g><g clip-path="url(#5719093de4)"><g clip-path="url(#7c4bb63b2e)"><g clip-path="url(#6e71c5733b)"><g clip-path="url(#5b6b97408f)"><path fill="#393536" d="M 97.558594 450.019531 L 138.289062 415.523438 C 138.289062 415.523438 137.125 414.136719 135.964844 412.746094 C 134.835938 411.328125 133.710938 409.910156 133.710938 409.910156 L 91.714844 442.855469 C 91.714844 442.855469 93.15625 444.660156 94.59375 446.472656 C 96.074219 448.246094 97.558594 450.019531 97.558594 450.019531 " fill-opacity="1" fill-rule="nonzero"/></g></g></g></g><g clip-path="url(#2718e51bdb)"><g clip-path="url(#cb67ae0a07)"><g clip-path="url(#000c1e50e7)"><g clip-path="url(#9c332d1c2b)"><path fill="#393536" d="M 118.195312 471.605469 L 154.503906 432.484375 C 154.503906 432.484375 154.171875 432.175781 153.675781 431.714844 C 153.421875 431.484375 153.132812 431.214844 152.820312 430.925781 C 152.515625 430.628906 152.1875 430.3125 151.867188 429.992188 C 150.5625 428.730469 149.265625 427.460938 149.265625 427.460938 L 111.535156 465.214844 C 111.535156 465.214844 113.1875 466.828125 114.839844 468.4375 C 115.253906 468.839844 115.664062 469.242188 116.054688 469.617188 C 116.453125 469.988281 116.820312 470.328125 117.136719 470.625 C 117.773438 471.214844 118.195312 471.605469 118.195312 471.605469 " fill-opacity="1" fill-rule="nonzero"/></g></g></g></g><g clip-path="url(#243e70fb80)"><g clip-path="url(#5de64e74a3)"><g clip-path="url(#db9c15c5e3)"><g clip-path="url(#16afd181b4)"><path fill="#393536" d="M 141.296875 490.585938 L 172.609375 447.363281 C 172.609375 447.363281 172.242188 447.097656 171.6875 446.703125 C 171.148438 446.296875 170.425781 445.753906 169.699219 445.207031 C 168.976562 444.664062 168.253906 444.117188 167.710938 443.710938 C 167.179688 443.289062 166.828125 443.003906 166.828125 443.003906 L 133.90625 485.019531 C 133.90625 485.019531 134.359375 485.378906 135.039062 485.917969 C 135.730469 486.441406 136.65625 487.136719 137.578125 487.835938 C 138.503906 488.527344 139.421875 489.230469 140.121094 489.742188 C 140.824219 490.25 141.296875 490.585938 141.296875 490.585938 " fill-opacity="1" fill-rule="nonzero"/></g></g></g></g><g clip-path="url(#898ee4537b)"><g clip-path="url(#cc5a6149f0)"><g clip-path="url(#b247e1644e)"><g clip-path="url(#f8770acd97)"><path fill="#393536" d="M 352.054688 482.007812 L 350.265625 476.878906 C 350.265625 476.878906 349.613281 477.097656 348.386719 477.507812 C 347.777344 477.714844 347.019531 477.96875 346.132812 478.269531 C 345.242188 478.558594 344.210938 478.867188 343.058594 479.226562 C 338.449219 480.640625 331.796875 482.484375 323.683594 484.105469 C 315.570312 485.714844 305.984375 487.058594 295.648438 487.597656 C 285.316406 488.125 274.246094 487.902344 263.28125 486.636719 C 257.800781 486.023438 252.34375 485.179688 247.015625 484.132812 C 241.683594 483.101562 236.492188 481.8125 231.523438 480.410156 C 226.550781 479 221.792969 477.46875 217.355469 475.8125 C 216.796875 475.609375 216.246094 475.40625 215.695312 475.210938 C 215.152344 474.996094 214.617188 474.785156 214.082031 474.574219 C 213.011719 474.148438 211.949219 473.75 210.921875 473.324219 C 208.871094 472.457031 206.875 471.652344 204.996094 470.785156 C 197.449219 467.410156 191.390625 464.125 187.21875 461.714844 C 185.113281 460.535156 183.519531 459.511719 182.410156 458.851562 C 181.300781 458.191406 180.726562 457.8125 180.726562 457.8125 L 177.832031 462.410156 C 177.832031 462.410156 178.425781 462.796875 179.5625 463.476562 C 180.703125 464.15625 182.34375 465.210938 184.503906 466.417969 C 188.789062 468.902344 195.023438 472.277344 202.777344 475.742188 C 204.707031 476.636719 206.757812 477.460938 208.867188 478.355469 C 209.925781 478.792969 211.015625 479.203125 212.113281 479.636719 C 212.664062 479.851562 213.21875 480.070312 213.777344 480.289062 C 214.34375 480.496094 214.910156 480.699219 215.480469 480.910156 C 220.042969 482.609375 224.933594 484.1875 230.042969 485.636719 C 235.152344 487.078125 240.484375 488.402344 245.964844 489.460938 C 251.433594 490.539062 257.042969 491.402344 262.675781 492.039062 C 273.941406 493.335938 285.316406 493.566406 295.929688 493.023438 C 306.550781 492.46875 316.398438 491.085938 324.738281 489.433594 C 333.078125 487.769531 339.910156 485.871094 344.648438 484.421875 C 345.832031 484.046875 346.890625 483.734375 347.808594 483.433594 C 348.71875 483.128906 349.496094 482.867188 350.125 482.652344 C 351.382812 482.234375 352.054688 482.007812 352.054688 482.007812 " fill-opacity="1" fill-rule="nonzero"/></g></g></g></g><g clip-path="url(#7cf529467c)"><g clip-path="url(#d62d0b1e03)"><g clip-path="url(#ae4f55e518)"><g clip-path="url(#e3ad945e7a)"><path fill="#393536" d="M 365.144531 519.507812 L 363.351562 514.378906 C 363.351562 514.378906 362.566406 514.640625 361.09375 515.136719 C 360.355469 515.386719 359.449219 515.691406 358.382812 516.046875 C 357.3125 516.398438 356.070312 516.773438 354.6875 517.203125 C 349.140625 518.902344 341.144531 521.125 331.390625 523.066406 C 321.640625 525.003906 310.128906 526.617188 297.71875 527.261719 C 285.3125 527.902344 272.023438 527.625 258.851562 526.113281 C 252.265625 525.375 245.714844 524.359375 239.3125 523.101562 C 232.90625 521.859375 226.667969 520.316406 220.6875 518.628906 C 214.710938 516.933594 208.988281 515.082031 203.648438 513.097656 C 202.976562 512.851562 202.316406 512.609375 201.652344 512.367188 C 201 512.109375 200.351562 511.859375 199.703125 511.605469 C 198.417969 511.097656 197.140625 510.617188 195.90625 510.105469 C 193.433594 509.0625 191.035156 508.085938 188.777344 507.042969 C 179.691406 502.988281 172.390625 499.03125 167.371094 496.125 C 164.84375 494.703125 162.917969 493.480469 161.585938 492.679688 C 160.25 491.882812 159.5625 491.425781 159.5625 491.425781 L 156.664062 496.023438 C 156.664062 496.023438 157.375 496.492188 158.738281 497.308594 C 160.101562 498.125 162.070312 499.378906 164.65625 500.832031 C 169.792969 503.804688 177.261719 507.851562 186.558594 512.003906 C 188.867188 513.070312 191.324219 514.066406 193.851562 515.132812 C 195.121094 515.65625 196.425781 516.148438 197.742188 516.667969 C 198.398438 516.929688 199.066406 517.1875 199.734375 517.449219 C 200.410156 517.695312 201.089844 517.945312 201.773438 518.195312 C 207.238281 520.226562 213.089844 522.121094 219.207031 523.851562 C 225.324219 525.582031 231.710938 527.160156 238.261719 528.429688 C 244.808594 529.714844 251.511719 530.753906 258.25 531.511719 C 271.71875 533.058594 285.3125 533.34375 298 532.6875 C 310.695312 532.027344 322.472656 530.375 332.445312 528.394531 C 342.421875 526.40625 350.601562 524.136719 356.277344 522.398438 C 357.691406 521.953125 358.957031 521.574219 360.058594 521.214844 C 361.148438 520.847656 362.078125 520.539062 362.832031 520.285156 C 364.339844 519.777344 365.144531 519.507812 365.144531 519.507812 " fill-opacity="1" fill-rule="nonzero"/></g></g></g></g><g clip-path="url(#f41317abc5)"><g clip-path="url(#5f5cec97f3)"><g clip-path="url(#5ba925f2e5)"><g clip-path="url(#dd9886e08b)"><path fill="#393536" d="M 176.433594 511.796875 L 200.070312 463.945312 C 200.070312 463.945312 198.460938 463.125 196.851562 462.300781 C 196.445312 462.097656 196.042969 461.894531 195.667969 461.695312 C 195.296875 461.496094 194.949219 461.304688 194.648438 461.144531 C 194.054688 460.820312 193.65625 460.605469 193.65625 460.605469 L 168.21875 507.527344 C 168.21875 507.527344 168.726562 507.800781 169.492188 508.214844 C 169.871094 508.421875 170.316406 508.664062 170.792969 508.921875 C 171.273438 509.175781 171.792969 509.433594 172.308594 509.699219 C 174.371094 510.75 176.433594 511.796875 176.433594 511.796875 " fill-opacity="1" fill-rule="nonzero"/></g></g></g></g><g clip-path="url(#7117c3781d)"><g clip-path="url(#5d3a89fb03)"><g clip-path="url(#59ea1616ad)"><g clip-path="url(#9c36dd1a8c)"><path fill="#393536" d="M 204.035156 523.382812 L 221.648438 473 C 221.648438 473 219.949219 472.382812 218.246094 471.765625 C 217.390625 471.46875 216.554688 471.132812 215.921875 470.882812 C 215.292969 470.636719 214.871094 470.46875 214.871094 470.46875 L 195.363281 520.152344 C 195.363281 520.152344 195.902344 520.359375 196.710938 520.675781 C 197.519531 520.996094 198.597656 521.417969 199.683594 521.804688 C 201.859375 522.59375 204.035156 523.382812 204.035156 523.382812 " fill-opacity="1" fill-rule="nonzero"/></g></g></g></g><g clip-path="url(#dc2ad8d3af)"><g clip-path="url(#b580bf1091)"><g clip-path="url(#950ca8e1fa)"><g clip-path="url(#e59b37f356)"><path fill="#393536" d="M 232.832031 531.507812 L 244.183594 479.359375 C 244.183594 479.359375 244.074219 479.332031 243.882812 479.292969 C 243.6875 479.25 243.414062 479.183594 243.082031 479.105469 C 242.421875 478.953125 241.535156 478.75 240.65625 478.546875 C 240.214844 478.445312 239.773438 478.339844 239.359375 478.246094 C 238.949219 478.140625 238.566406 478.039062 238.234375 477.957031 C 237.578125 477.789062 237.140625 477.671875 237.140625 477.671875 L 223.835938 529.355469 C 223.835938 529.355469 224.394531 529.503906 225.234375 529.71875 C 225.65625 529.824219 226.144531 529.953125 226.671875 530.085938 C 227.199219 530.210938 227.761719 530.339844 228.324219 530.472656 C 229.453125 530.730469 230.578125 530.992188 231.421875 531.1875 C 231.84375 531.285156 232.199219 531.367188 232.445312 531.421875 C 232.691406 531.476562 232.832031 531.507812 232.832031 531.507812 " fill-opacity="1" fill-rule="nonzero"/></g></g></g></g><g clip-path="url(#36c4f7f52d)"><g clip-path="url(#431b938ac6)"><g clip-path="url(#995ded4e22)"><g clip-path="url(#08ef2957f4)"><path fill="#393536" d="M 262.390625 536.070312 L 267.34375 482.933594 C 267.34375 482.933594 266.890625 482.902344 266.214844 482.824219 C 265.539062 482.753906 264.640625 482.65625 263.738281 482.554688 C 262.839844 482.464844 261.9375 482.363281 261.265625 482.269531 C 260.589844 482.179688 260.140625 482.121094 260.140625 482.121094 L 253.199219 535.035156 C 253.199219 535.035156 253.773438 535.109375 254.632812 535.222656 C 255.492188 535.34375 256.640625 535.472656 257.789062 535.59375 C 258.941406 535.714844 260.085938 535.839844 260.949219 535.933594 C 261.8125 536.027344 262.390625 536.070312 262.390625 536.070312 " fill-opacity="1" fill-rule="nonzero"/></g></g></g></g><g clip-path="url(#d2aecd526d)"><g clip-path="url(#cabe849be5)"><g clip-path="url(#762ff025cd)"><g clip-path="url(#993fe9cbf3)"><path fill="#393536" d="M 292.269531 537.03125 L 290.773438 483.6875 C 290.773438 483.6875 290.660156 483.6875 290.460938 483.695312 C 290.265625 483.703125 289.980469 483.71875 289.640625 483.71875 C 288.960938 483.726562 288.054688 483.738281 287.148438 483.746094 C 286.242188 483.753906 285.335938 483.78125 284.660156 483.761719 C 283.980469 483.753906 283.523438 483.75 283.523438 483.75 L 283.023438 537.113281 C 283.023438 537.113281 283.601562 537.121094 284.46875 537.128906 C 285.335938 537.152344 286.492188 537.121094 287.648438 537.113281 C 288.804688 537.097656 289.960938 537.082031 290.824219 537.074219 C 291.257812 537.070312 291.621094 537.050781 291.871094 537.042969 C 292.125 537.035156 292.269531 537.03125 292.269531 537.03125 " fill-opacity="1" fill-rule="nonzero"/></g></g></g></g><g clip-path="url(#873901bf63)"><g clip-path="url(#009c5878d4)"><g clip-path="url(#4a2f709907)"><g clip-path="url(#82b4d83b3d)"><path fill="#393536" d="M 322.050781 534.375 L 314.121094 481.601562 C 314.121094 481.601562 313.671875 481.671875 313 481.777344 C 312.328125 481.867188 311.429688 481.988281 310.53125 482.105469 C 309.632812 482.21875 308.734375 482.351562 308.058594 482.425781 C 307.382812 482.496094 306.933594 482.546875 306.933594 482.546875 L 312.886719 535.578125 C 312.886719 535.578125 313.457031 535.515625 314.324219 535.417969 C 315.179688 535.324219 316.328125 535.160156 317.472656 535.015625 C 318.621094 534.863281 319.765625 534.710938 320.625 534.59375 C 321.480469 534.464844 322.050781 534.375 322.050781 534.375 " fill-opacity="1" fill-rule="nonzero"/></g></g></g></g><g clip-path="url(#e5609b4862)"><g clip-path="url(#c4e1600ae6)"><g clip-path="url(#9f2e57e2eb)"><g clip-path="url(#ea5642c307)"><path fill="#393536" d="M 351.308594 528.128906 L 337.03125 476.710938 C 337.03125 476.710938 336.59375 476.835938 335.941406 477.019531 C 335.285156 477.203125 334.410156 477.414062 333.53125 477.644531 C 332.65625 477.871094 331.777344 478.097656 331.121094 478.265625 C 330.457031 478.417969 330.019531 478.519531 330.019531 478.519531 L 342.347656 530.441406 C 342.347656 530.441406 342.914062 530.304688 343.757812 530.113281 C 344.597656 529.898438 345.71875 529.609375 346.835938 529.324219 C 347.957031 529.03125 349.082031 528.75 349.914062 528.523438 C 350.753906 528.28125 351.308594 528.128906 351.308594 528.128906 " fill-opacity="1" fill-rule="nonzero"/></g></g></g></g><g clip-path="url(#2cab9afe0e)"><g clip-path="url(#42f6126f6e)"><g clip-path="url(#6a7805d629)"><g clip-path="url(#d18f5a8318)"><path fill="#393536" d="M 476.035156 358.027344 L 470.90625 356.238281 C 470.90625 356.238281 470.847656 356.402344 470.734375 356.714844 C 470.621094 357.027344 470.453125 357.492188 470.230469 358.101562 C 470.007812 358.707031 469.734375 359.457031 469.417969 360.339844 C 469.101562 361.21875 468.6875 362.210938 468.253906 363.339844 C 466.492188 367.828125 463.796875 374.175781 460.007812 381.519531 C 459.769531 381.980469 459.542969 382.449219 459.292969 382.914062 C 459.042969 383.375 458.785156 383.84375 458.53125 384.316406 C 458.015625 385.257812 457.503906 386.230469 456.960938 387.203125 C 455.839844 389.128906 454.730469 391.144531 453.476562 393.15625 C 452.269531 395.195312 450.929688 397.226562 449.589844 399.320312 C 448.191406 401.375 446.796875 403.496094 445.265625 405.582031 C 439.277344 414.007812 432.105469 422.441406 424.3125 430.285156 C 416.46875 438.078125 408.035156 445.25 399.609375 451.238281 C 397.523438 452.769531 395.402344 454.164062 393.347656 455.5625 C 391.25 456.902344 389.21875 458.242188 387.179688 459.449219 C 385.171875 460.703125 383.152344 461.816406 381.230469 462.933594 C 380.257812 463.476562 379.285156 463.992188 378.34375 464.503906 C 377.871094 464.761719 377.40625 465.011719 376.941406 465.265625 C 376.476562 465.515625 376.007812 465.742188 375.546875 465.980469 C 368.203125 469.769531 361.851562 472.464844 357.367188 474.230469 C 356.238281 474.664062 355.246094 475.074219 354.367188 475.390625 C 353.484375 475.710938 352.734375 475.984375 352.128906 476.203125 C 351.519531 476.425781 351.054688 476.59375 350.742188 476.707031 C 350.429688 476.824219 350.265625 476.878906 350.265625 476.878906 L 352.054688 482.007812 C 352.054688 482.007812 352.222656 481.949219 352.542969 481.832031 C 352.867188 481.714844 353.34375 481.542969 353.96875 481.3125 C 354.59375 481.085938 355.363281 480.808594 356.265625 480.480469 C 357.171875 480.152344 358.195312 479.730469 359.351562 479.28125 C 363.964844 477.472656 370.492188 474.703125 378.039062 470.808594 C 378.515625 470.5625 378.996094 470.328125 379.472656 470.070312 C 379.949219 469.8125 380.429688 469.550781 380.914062 469.289062 C 381.882812 468.757812 382.878906 468.234375 383.878906 467.675781 C 385.859375 466.527344 387.933594 465.378906 390 464.089844 C 392.09375 462.851562 394.183594 461.476562 396.335938 460.097656 C 398.445312 458.660156 400.628906 457.222656 402.773438 455.652344 C 411.433594 449.496094 420.097656 442.128906 428.152344 434.125 C 436.15625 426.070312 443.523438 417.40625 449.679688 408.746094 C 451.25 406.601562 452.6875 404.421875 454.125 402.308594 C 455.5 400.15625 456.878906 398.066406 458.117188 395.972656 C 459.40625 393.90625 460.554688 391.835938 461.703125 389.851562 C 462.261719 388.851562 462.785156 387.859375 463.316406 386.886719 C 463.578125 386.402344 463.839844 385.921875 464.097656 385.445312 C 464.351562 384.972656 464.589844 384.488281 464.832031 384.011719 C 468.730469 376.464844 471.496094 369.9375 473.308594 365.328125 C 473.757812 364.167969 474.179688 363.144531 474.503906 362.238281 C 474.832031 361.335938 475.113281 360.566406 475.339844 359.941406 C 475.566406 359.320312 475.742188 358.839844 475.859375 358.519531 C 475.972656 358.199219 476.035156 358.027344 476.035156 358.027344 " fill-opacity="1" fill-rule="nonzero"/></g></g></g></g><g clip-path="url(#f9630cbfcc)"><g clip-path="url(#c68b209315)"><g clip-path="url(#7a59608c7f)"><g clip-path="url(#af43f03121)"><path fill="#393536" d="M 513.53125 371.117188 L 508.40625 369.328125 C 508.40625 369.328125 508.335938 369.519531 508.199219 369.898438 C 508.0625 370.277344 507.859375 370.835938 507.59375 371.566406 C 507.328125 372.296875 507 373.199219 506.613281 374.257812 C 506.230469 375.316406 505.742188 376.515625 505.21875 377.867188 C 503.097656 383.265625 499.855469 390.914062 495.292969 399.753906 C 495.003906 400.308594 494.726562 400.875 494.425781 401.433594 C 494.125 401.992188 493.820312 402.550781 493.511719 403.125 C 492.894531 404.257812 492.277344 405.421875 491.621094 406.59375 C 490.28125 408.917969 488.929688 411.339844 487.429688 413.757812 C 485.96875 416.210938 484.363281 418.660156 482.746094 421.179688 C 481.070312 423.65625 479.378906 426.207031 477.546875 428.714844 C 470.339844 438.847656 461.730469 448.984375 452.394531 458.367188 C 443.007812 467.703125 432.871094 476.3125 422.742188 483.523438 C 420.230469 485.355469 417.683594 487.046875 415.207031 488.71875 C 412.6875 490.339844 410.238281 491.941406 407.789062 493.398438 C 405.367188 494.902344 402.941406 496.253906 400.621094 497.59375 C 399.453125 498.246094 398.289062 498.863281 397.148438 499.484375 C 396.578125 499.792969 396.015625 500.097656 395.460938 500.398438 C 394.898438 500.699219 394.335938 500.980469 393.78125 501.265625 C 384.941406 505.828125 377.296875 509.070312 371.894531 511.191406 C 370.542969 511.714844 369.34375 512.203125 368.285156 512.589844 C 367.222656 512.972656 366.324219 513.300781 365.59375 513.566406 C 364.863281 513.832031 364.300781 514.035156 363.925781 514.175781 C 363.546875 514.308594 363.351562 514.378906 363.351562 514.378906 L 365.144531 519.507812 C 365.144531 519.507812 365.34375 519.433594 365.730469 519.296875 C 366.113281 519.15625 366.6875 518.949219 367.4375 518.675781 C 368.183594 518.40625 369.105469 518.066406 370.1875 517.675781 C 371.269531 517.28125 372.5 516.78125 373.882812 516.246094 C 379.410156 514.074219 387.226562 510.757812 396.277344 506.085938 C 396.839844 505.796875 397.417969 505.515625 397.992188 505.207031 C 398.5625 504.894531 399.140625 504.582031 399.722656 504.265625 C 400.882812 503.636719 402.074219 503.003906 403.273438 502.335938 C 405.648438 500.964844 408.125 499.582031 410.605469 498.042969 C 413.113281 496.554688 415.617188 494.910156 418.195312 493.257812 C 420.730469 491.539062 423.335938 489.8125 425.902344 487.9375 C 436.269531 480.5625 446.636719 471.757812 456.234375 462.207031 C 465.785156 452.613281 474.585938 442.242188 481.964844 431.875 C 483.835938 429.3125 485.566406 426.703125 487.285156 424.167969 C 488.9375 421.589844 490.578125 419.085938 492.070312 416.578125 C 493.609375 414.097656 494.992188 411.621094 496.359375 409.246094 C 497.03125 408.046875 497.664062 406.855469 498.292969 405.695312 C 498.609375 405.113281 498.921875 404.535156 499.230469 403.964844 C 499.539062 403.390625 499.824219 402.8125 500.113281 402.25 C 504.785156 393.203125 508.101562 385.382812 510.273438 379.859375 C 510.808594 378.472656 511.308594 377.246094 511.703125 376.160156 C 512.09375 375.078125 512.429688 374.15625 512.703125 373.410156 C 512.976562 372.660156 513.183594 372.089844 513.324219 371.703125 C 513.460938 371.316406 513.53125 371.117188 513.53125 371.117188 " fill-opacity="1" fill-rule="nonzero"/></g></g></g></g><g clip-path="url(#11a0056b01)"><g clip-path="url(#34f75f2af0)"><g clip-path="url(#1d0a5acd86)"><g clip-path="url(#298fe534e5)"><path fill="#393536" d="M 389.792969 513.867188 L 367.125 465.558594 C 367.125 465.558594 367.023438 465.609375 366.847656 465.695312 C 366.664062 465.78125 366.414062 465.90625 366.101562 466.042969 C 365.484375 466.320312 364.660156 466.691406 363.835938 467.058594 C 362.191406 467.820312 360.515625 468.507812 360.515625 468.507812 L 381.339844 517.636719 C 381.339844 517.636719 383.476562 516.753906 385.582031 515.789062 C 386.640625 515.3125 387.695312 514.839844 388.488281 514.480469 C 388.882812 514.308594 389.207031 514.144531 389.4375 514.035156 C 389.664062 513.929688 389.792969 513.867188 389.792969 513.867188 " fill-opacity="1" fill-rule="nonzero"/></g></g></g></g></svg>